<?xml version="1.0" encoding="UTF-8"?>
<svg width="324px" height="384px" viewBox="0 0 324 384" version="1.1" xmlns="http://www.w3.org/2000/svg" xmlns:xlink="http://www.w3.org/1999/xlink">
    <title>agreement, partnership, world@2x</title>
    <defs>
        <linearGradient x1="50%" y1="0%" x2="50%" y2="100%" id="linearGradient-1">
            <stop stop-color="#966AFF" offset="0%"></stop>
            <stop stop-color="#E885E0" offset="100%"></stop>
        </linearGradient>
        <linearGradient x1="21.0206843%" y1="83.5407671%" x2="28.9929927%" y2="-7.46324428%" id="linearGradient-2">
            <stop stop-color="#A5FECB" offset="0%"></stop>
            <stop stop-color="#20BDFF" offset="100%"></stop>
        </linearGradient>
        <linearGradient x1="50%" y1="0%" x2="50%" y2="100%" id="linearGradient-3">
            <stop stop-color="#9D61F7" offset="0%"></stop>
            <stop stop-color="#00DEFC" offset="100%"></stop>
        </linearGradient>
        <linearGradient x1="50%" y1="-108.036091%" x2="50%" y2="127.882425%" id="linearGradient-4">
            <stop stop-color="#FFF2F2" stop-opacity="0.139407835" offset="0%"></stop>
            <stop stop-color="#FEFAF9" offset="100%"></stop>
        </linearGradient>
        <linearGradient x1="50%" y1="-42.9786065%" x2="50%" y2="100%" id="linearGradient-5">
            <stop stop-color="#5174D0" offset="0%"></stop>
            <stop stop-color="#1F2480" offset="100%"></stop>
        </linearGradient>
        <linearGradient x1="50%" y1="0%" x2="50%" y2="100%" id="linearGradient-6">
            <stop stop-color="#966AFF" offset="0%"></stop>
            <stop stop-color="#E885E0" offset="100%"></stop>
        </linearGradient>
        <linearGradient x1="50%" y1="0%" x2="50%" y2="100%" id="linearGradient-7">
            <stop stop-color="#966AFF" offset="0%"></stop>
            <stop stop-color="#E885E0" offset="100%"></stop>
        </linearGradient>
        <linearGradient x1="50%" y1="0%" x2="50%" y2="100%" id="linearGradient-8">
            <stop stop-color="#966AFF" offset="0%"></stop>
            <stop stop-color="#E885E0" offset="100%"></stop>
        </linearGradient>
        <linearGradient x1="50%" y1="0%" x2="50%" y2="100%" id="linearGradient-9">
            <stop stop-color="#FB65BC" offset="0%"></stop>
            <stop stop-color="#FCAFA9" offset="100%"></stop>
        </linearGradient>
        <linearGradient x1="50%" y1="0%" x2="50%" y2="100%" id="linearGradient-10">
            <stop stop-color="#966AFF" offset="0%"></stop>
            <stop stop-color="#E885E0" offset="100%"></stop>
        </linearGradient>
        <linearGradient x1="50%" y1="-30.9601329%" x2="50%" y2="127.882425%" id="linearGradient-11">
            <stop stop-color="#FFF2F2" stop-opacity="0.139407835" offset="0%"></stop>
            <stop stop-color="#FEFAF9" offset="100%"></stop>
        </linearGradient>
        <linearGradient x1="50%" y1="0%" x2="50%" y2="100%" id="linearGradient-12">
            <stop stop-color="#FB65BC" offset="0%"></stop>
            <stop stop-color="#FCAFA9" offset="100%"></stop>
        </linearGradient>
        <linearGradient x1="50%" y1="-30.9601329%" x2="50%" y2="127.882425%" id="linearGradient-13">
            <stop stop-color="#FFF2F2" stop-opacity="0.139407835" offset="0%"></stop>
            <stop stop-color="#FEFAF9" offset="100%"></stop>
        </linearGradient>
        <linearGradient x1="50%" y1="0%" x2="50%" y2="100%" id="linearGradient-14">
            <stop stop-color="#CFDEFF" offset="0%"></stop>
            <stop stop-color="#F1E4FF" offset="100%"></stop>
        </linearGradient>
        <linearGradient x1="28.6528991%" y1="19.0360524%" x2="59.3272227%" y2="78.2810164%" id="linearGradient-15">
            <stop stop-color="#A4BBED" offset="0%"></stop>
            <stop stop-color="#D4DFFF" offset="100%"></stop>
        </linearGradient>
        <linearGradient x1="50%" y1="0%" x2="50%" y2="100%" id="linearGradient-16">
            <stop stop-color="#CFDEFF" offset="0%"></stop>
            <stop stop-color="#F1E4FF" offset="100%"></stop>
        </linearGradient>
    </defs>
    <g id="Page-1" stroke="none" stroke-width="1" fill="none" fill-rule="evenodd">
        <g id="Business---Icon-Illustration" transform="translate(-1019.000000, -482.000000)">
            <g id="agreement,-partnership,-world" transform="translate(1019.000000, 482.000000)">
                <ellipse id="Shape" fill="#B6A0D1" fill-rule="nonzero" opacity="0.200000003" cx="162.5" cy="374" rx="142.5" ry="10"></ellipse>
                <path d="M235.5,196 C233.014719,196 231,193.985281 231,191.5 C231,189.014719 233.014719,187 235.5,187 C237.985281,187 240,189.014719 240,191.5 C240,193.985281 237.985281,196 235.5,196 Z M235.5,199 C239.642136,199 243,195.642136 243,191.5 C243,187.357864 239.642136,184 235.5,184 C231.357864,184 228,187.357864 228,191.5 C228,195.642136 231.357864,199 235.5,199 Z M235.5,202 C229.70101,202 225,197.29899 225,191.5 C225,185.70101 229.70101,181 235.5,181 C241.29899,181 246,185.70101 246,191.5 C246,197.29899 241.29899,202 235.5,202 Z M178.525424,64 C177.420854,64 176.525424,63.1045695 176.525424,62 C176.525424,60.8954305 177.420854,60 178.525424,60 L184.525424,60 C185.629993,60 186.525424,60.8954305 186.525424,62 C186.525424,63.1045695 185.629993,64 184.525424,64 L178.525424,64 Z M194.525424,64 C193.420854,64 192.525424,63.1045695 192.525424,62 C192.525424,60.8954305 193.420854,60 194.525424,60 L200.525424,60 C201.629993,60 202.525424,60.8954305 202.525424,62 C202.525424,63.1045695 201.629993,64 200.525424,64 L194.525424,64 Z M210.525424,64 C209.420854,64 208.525424,63.1045695 208.525424,62 C208.525424,60.8954305 209.420854,60 210.525424,60 L216.525424,60 C217.629993,60 218.525424,60.8954305 218.525424,62 C218.525424,63.1045695 217.629993,64 216.525424,64 L210.525424,64 Z M224.908228,65.7133656 C224.016403,65.0616587 223.821749,63.8103789 224.473456,62.9185538 C225.125163,62.0267288 226.376443,61.8320745 227.268268,62.4837814 C228.964215,63.7231061 230.50112,65.3899463 231.82937,67.4065521 C232.43695,68.3290057 232.181695,69.5693428 231.259241,70.1769225 C230.336787,70.7845023 229.09645,70.5292467 228.488871,69.6067931 C227.412467,67.9725514 226.199315,66.6568359 224.908228,65.7133656 Z M232.038019,78.2034562 C231.784599,77.1283504 232.450708,76.0513679 233.525813,75.7979484 C234.600919,75.5445289 235.677902,76.2106371 235.931321,77.2857429 C236.403164,79.2874873 236.723238,81.3806605 236.882564,83.5283911 C236.96428,84.6299338 236.137547,85.5891545 235.036004,85.6708706 C233.934462,85.7525867 232.975241,84.9258538 232.893525,83.8243112 C232.749637,81.8846797 232.461354,79.9994114 232.038019,78.2034562 Z M233,93.7663678 C233,92.6617983 233.895431,91.7663678 235,91.7663678 C236.104569,91.7663678 237,92.6617983 237,93.7663678 L237,99.7654303 C237,100.87 236.104569,101.76543 235,101.76543 C233.895431,101.76543 233,100.87 233,99.7654303 L233,93.7663678 Z M233,109.766465 C233,108.661895 233.895431,107.766465 235,107.766465 C236.104569,107.766465 237,108.661895 237,109.766465 L237,115.764861 C237,116.86943 236.104569,117.764861 235,117.764861 C233.895431,117.764861 233,116.86943 233,115.764861 L233,109.766465 Z M233,125.765084 C233,124.660515 233.895431,123.765084 235,123.765084 C236.104569,123.765084 237,124.660515 237,125.765084 L237,131.764927 C237,132.869497 236.104569,133.764927 235,133.764927 C233.895431,133.764927 233,132.869497 233,131.764927 L233,125.765084 Z M233,141.763182 C233,140.658612 233.895431,139.763182 235,139.763182 C236.104569,139.763182 237,140.658612 237,141.763182 L237,147.76325 C237,148.867819 236.104569,149.76325 235,149.76325 C233.895431,149.76325 233,148.867819 233,147.76325 L233,141.763182 Z M233,157.765812 C233,156.661242 233.895431,155.765812 235,155.765812 C236.104569,155.765812 237,156.661242 237,157.765812 L237,163.765406 C237,164.869976 236.104569,165.765406 235,165.765406 C233.895431,165.765406 233,164.869976 233,163.765406 L233,157.765812 Z M16.3798964,269.963655 C16.0897851,269.987725 15.7963261,270 15.5,270 C9.70101013,270 5,265.29899 5,259.5 C5,253.70101 9.70101013,249 15.5,249 C21.2989899,249 26,253.70101 26,259.5 C26,263.815775 23.3962216,267.523404 19.6738724,269.137681 C20.0090542,269.461182 20.2333498,269.902573 20.2768299,270.403103 C20.4458884,272.349256 20.6919877,274.281507 21.0140459,276.196659 C21.1972219,277.285934 20.4626835,278.31746 19.3734083,278.500636 C18.2841332,278.683812 17.2526077,277.949274 17.0694317,276.859998 C16.7297043,274.839775 16.470129,272.801717 16.2918371,270.749272 C16.2680537,270.475484 16.3006119,270.209797 16.3798964,269.963655 L16.3798964,269.963655 Z M163.898406,337 C165.002976,337 165.898406,337.895431 165.898406,339 C165.898406,340.104569 165.002976,341 163.898406,341 L157.898406,341 C156.793837,341 155.898406,340.104569 155.898406,339 C155.898406,337.895431 156.793837,337 157.898406,337 L163.898406,337 Z M147.898406,337 C149.002976,337 149.898406,337.895431 149.898406,339 C149.898406,340.104569 149.002976,341 147.898406,341 L141.898406,341 C140.793837,341 139.898406,340.104569 139.898406,339 C139.898406,337.895431 140.793837,337 141.898406,337 L147.898406,337 Z M131.898406,337 C133.002976,337 133.898406,337.895431 133.898406,339 C133.898406,340.104569 133.002976,341 131.898406,341 L125.898406,341 C124.793837,341 123.898406,340.104569 123.898406,339 C123.898406,337.895431 124.793837,337 125.898406,337 L131.898406,337 Z M115.898406,337 C117.002976,337 117.898406,337.895431 117.898406,339 C117.898406,340.104569 117.002976,341 115.898406,341 L109.898406,341 C108.793837,341 107.898406,340.104569 107.898406,339 C107.898406,337.895431 108.793837,337 109.898406,337 L115.898406,337 Z M99.898406,337 C101.002976,337 101.898406,337.895431 101.898406,339 C101.898406,340.104569 101.002976,341 99.898406,341 L93.898406,341 C92.7938365,341 91.898406,340.104569 91.898406,339 C91.898406,337.895431 92.7938365,337 93.898406,337 L99.898406,337 Z M84.1535172,336.469609 C85.250119,336.602041 86.0317332,337.598369 85.8993013,338.694971 C85.7668693,339.791573 84.7705406,340.573187 83.6739388,340.440755 C81.6286443,340.193754 79.5996887,339.865557 77.5906254,339.457417 C76.5081664,339.237517 75.8089245,338.181746 76.0288249,337.099287 C76.2487253,336.016828 77.3044962,335.317586 78.3869553,335.537486 C80.2912472,335.924341 82.2145354,336.235446 84.1535172,336.469609 Z M68.9881254,332.959508 C70.0312784,333.322696 70.5824989,334.462761 70.2193108,335.505914 C69.8561227,336.549067 68.716058,337.100287 67.672905,336.737099 C65.7311336,336.061045 63.81897,335.307436 61.9404445,334.478401 C60.9299085,334.032429 60.4722387,332.851697 60.9182104,331.841161 C61.3641821,330.830625 62.5449149,330.372955 63.5554509,330.818927 C65.3357909,331.60463 67.1479489,332.318825 68.9881254,332.959508 Z M54.9398317,326.305624 C55.8818823,326.882352 56.1780351,328.113565 55.6013077,329.055615 C55.0245802,329.997666 53.7933674,330.293818 52.8513168,329.717091 C51.0995486,328.644651 49.3913099,327.502503 47.7306917,326.293694 C46.8376647,325.643635 46.6407,324.392717 47.2907588,323.49969 C47.9408176,322.606663 49.1917358,322.409698 50.0847629,323.059757 C51.6593293,324.205927 53.2789826,325.288845 54.9398317,326.305624 Z M42.5825819,316.793011 C43.3812841,317.555998 43.4102373,318.821997 42.6472507,319.620699 C41.8842641,320.419401 40.6182652,320.448354 39.819563,319.685368 C38.3347944,318.266994 36.9068753,316.79002 35.539486,315.25822 C34.8039118,314.434203 34.875609,313.169904 35.6996263,312.43433 C36.5236435,311.698756 37.7879421,311.770453 38.5235163,312.59447 C39.820289,314.047162 41.1744789,315.447874 42.5825819,316.793011 Z M32.5642484,304.958551 C33.1847826,305.87234 32.9470523,307.116155 32.0332629,307.73669 C31.1194735,308.357224 29.8756585,308.119493 29.2551243,307.205704 C28.1014213,305.506778 27.0159305,303.762356 26.0015616,301.976548 C25.4560137,301.016105 25.792353,299.795258 26.7527962,299.24971 C27.7132395,298.704162 28.9340866,299.040501 29.4796344,300.000944 C30.4412827,301.693937 31.4704059,303.347775 32.5642484,304.958551 Z M25.2390936,291.209695 C25.6510325,292.234576 25.1541452,293.399348 24.1292647,293.811287 C23.1043842,294.223226 21.9396118,293.726339 21.5276729,292.701458 C20.7620629,290.796664 20.0728783,288.860428 19.4621035,286.896728 C19.1340482,285.841999 19.7231338,284.72103 20.7778629,284.392975 C21.8325921,284.06492 22.9535603,284.654006 23.2816155,285.708735 C23.8604195,287.569645 24.5135349,289.404547 25.2390936,291.209695 Z M15.5,264 C13.0147186,264 11,261.985281 11,259.5 C11,257.014719 13.0147186,255 15.5,255 C17.9852814,255 20,257.014719 20,259.5 C20,261.985281 17.9852814,264 15.5,264 Z M15.5,267 C19.6421356,267 23,263.642136 23,259.5 C23,255.357864 19.6421356,252 15.5,252 C11.3578644,252 8,255.357864 8,259.5 C8,263.642136 11.3578644,267 15.5,267 Z" id="Shape" fill="#D4DFFF" fill-rule="nonzero"></path>
                <path d="M20,21 L94.2503829,21 L139.93985,68.4479998 L139.93985,192 C139.93985,203.045695 130.985545,212 119.93985,212 L20,212 C8.954305,212 0,203.045695 0,192 L0,41 C0,29.954305 8.954305,21 20,21 Z" id="Shape" fill="url(#linearGradient-1)"></path>
                <path d="M94.3533835,21.2079348 L140.69863,67.5951803 L115.556391,67.5951803 C103.846293,67.5951803 94.3533835,58.0936678 94.3533835,46.3729581 L94.3533835,21.2079348 Z" id="Shape" fill="url(#linearGradient-2)" fill-rule="nonzero"></path>
                <path d="M46,0 L120.250383,0 L165.93985,47.4479998 L165.93985,171 C165.93985,182.045695 156.985545,191 145.93985,191 L46,191 C34.954305,191 26,182.045695 26,171 L26,20 C26,8.954305 34.954305,0 46,0 Z" id="Shape" fill="url(#linearGradient-3)"></path>
                <path d="M59,71 C49.0588745,71 41,62.9411255 41,53 C41,43.0588745 49.0588745,35 59,35 C68.9411255,35 77,43.0588745 77,53 C77,62.9411255 68.9411255,71 59,71 Z M86,36 L115.924812,36 C117.029382,36 117.924812,36.8954305 117.924812,38 L117.924812,39.3055556 C117.924812,40.4101251 117.029382,41.3055556 115.924812,41.3055556 L86,41.3055556 C84.8954305,41.3055556 84,40.4101251 84,39.3055556 L84,38 C84,36.8954305 84.8954305,36 86,36 Z M86,50 L147.729323,50 C148.833893,50 149.729323,50.8954305 149.729323,52 L149.729323,53.3055556 C149.729323,54.4101251 148.833893,55.3055556 147.729323,55.3055556 L86,55.3055556 C84.8954305,55.3055556 84,54.4101251 84,53.3055556 L84,52 C84,50.8954305 84.8954305,50 86,50 Z M86,60 L126.526316,60 C127.630885,60 128.526316,60.8954305 128.526316,62 L128.526316,63.3055556 C128.526316,64.4101251 127.630885,65.3055556 126.526316,65.3055556 L86,65.3055556 C84.8954305,65.3055556 84,64.4101251 84,63.3055556 L84,62 C84,60.8954305 84.8954305,60 86,60 Z M59,120 C49.0588745,120 41,111.941125 41,102 C41,92.0588745 49.0588745,84 59,84 C68.9411255,84 77,92.0588745 77,102 C77,111.941125 68.9411255,120 59,120 Z M86,85 L115.924812,85 C117.029382,85 117.924812,85.8954305 117.924812,87 L117.924812,88.3055556 C117.924812,89.4101251 117.029382,90.3055556 115.924812,90.3055556 L86,90.3055556 C84.8954305,90.3055556 84,89.4101251 84,88.3055556 L84,87 C84,85.8954305 84.8954305,85 86,85 Z M86,99 L147.729323,99 C148.833893,99 149.729323,99.8954305 149.729323,101 L149.729323,102.305556 C149.729323,103.410125 148.833893,104.305556 147.729323,104.305556 L86,104.305556 C84.8954305,104.305556 84,103.410125 84,102.305556 L84,101 C84,99.8954305 84.8954305,99 86,99 Z M86,109 L126.526316,109 C127.630885,109 128.526316,109.895431 128.526316,111 L128.526316,112.305556 C128.526316,113.410125 127.630885,114.305556 126.526316,114.305556 L86,114.305556 C84.8954305,114.305556 84,113.410125 84,112.305556 L84,111 C84,109.895431 84.8954305,109 86,109 Z M59,169 C49.0588745,169 41,160.941125 41,151 C41,141.058875 49.0588745,133 59,133 C68.9411255,133 77,141.058875 77,151 C77,160.941125 68.9411255,169 59,169 Z" id="Shape" fill="url(#linearGradient-4)" opacity="0.965587798"></path>
                <path d="M59,57 C55.1340068,57 52,53.8659932 52,50 C52,46.1340068 55.1340068,43 59,43 C62.8659932,43 66,46.1340068 66,50 C66,53.8659932 62.8659932,57 59,57 Z M47.311249,66.6888767 C49.4831044,62.1416087 54.1246712,59 59.5,59 C64.6286874,59 69.0894039,61.8599239 71.37436,66.0719826 C68.1486785,69.1265579 63.7931222,71 59,71 C54.5385407,71 50.4561871,69.3768556 47.311249,66.6888767 L47.311249,66.6888767 Z M59,106 C55.1340068,106 52,102.865993 52,99 C52,95.1340068 55.1340068,92 59,92 C62.8659932,92 66,95.1340068 66,99 C66,102.865993 62.8659932,106 59,106 Z M47.311249,115.688877 C49.4831044,111.141609 54.1246712,108 59.5,108 C64.6286874,108 69.0894039,110.859924 71.37436,115.071983 C68.1486785,118.126558 63.7931222,120 59,120 C54.5385407,120 50.4561871,118.376856 47.311249,115.688877 L47.311249,115.688877 Z M59,155 C55.1340068,155 52,151.865993 52,148 C52,144.134007 55.1340068,141 59,141 C62.8659932,141 66,144.134007 66,148 C66,151.865993 62.8659932,155 59,155 Z" id="Shape" fill="#FFFFFF" fill-rule="nonzero"></path>
                <path d="M47.311249,164.688877 C49.4831044,160.141609 54.1246712,157 59.5,157 C64.6286874,157 69.0894039,159.859924 71.37436,164.071983 C68.1486785,167.126558 63.7931222,169 59,169 C54.5385407,169 50.4561871,167.376856 47.311249,164.688877 L47.311249,164.688877 Z" id="Shape" fill="#FFFFFF" fill-rule="nonzero"></path>
                <path d="M86,134 L115.924812,134 C117.029382,134 117.924812,134.895431 117.924812,136 L117.924812,137.305556 C117.924812,138.410125 117.029382,139.305556 115.924812,139.305556 L86,139.305556 C84.8954305,139.305556 84,138.410125 84,137.305556 L84,136 C84,134.895431 84.8954305,134 86,134 Z" id="Shape" fill="#FFE988" fill-rule="nonzero"></path>
                <path d="M86,148 L147.729323,148 C148.833893,148 149.729323,148.895431 149.729323,150 L149.729323,151.305556 C149.729323,152.410125 148.833893,153.305556 147.729323,153.305556 L86,153.305556 C84.8954305,153.305556 84,152.410125 84,151.305556 L84,150 C84,148.895431 84.8954305,148 86,148 Z" id="Shape" fill="#FFFFFF" fill-rule="nonzero"></path>
                <path d="M86,158 L126.526316,158 C127.630885,158 128.526316,158.895431 128.526316,160 L128.526316,161.305556 C128.526316,162.410125 127.630885,163.305556 126.526316,163.305556 L86,163.305556 C84.8954305,163.305556 84,162.410125 84,161.305556 L84,160 C84,158.895431 84.8954305,158 86,158 Z" id="Shape" fill="#FFFFFF" fill-rule="nonzero"></path>
                <path d="M120.353383,0.207934795 L166.69863,46.5951803 L141.556391,46.5951803 C129.846293,46.5951803 120.353383,37.0936678 120.353383,25.3729581 L120.353383,0.207934795 Z" id="Shape" fill="#0BD5FC" fill-rule="nonzero"></path>
                <path d="M55.2565006,280.537909 C20.2549895,240.273277 24.5215924,179.258012 64.786225,144.256501 C105.050858,109.254989 166.066123,113.521592 201.067634,153.786225 C236.069145,194.050858 231.802542,255.066123 191.537909,290.067634 C151.273277,325.069145 90.2580117,320.802542 55.2565006,280.537909 Z" id="Shape" fill="url(#linearGradient-5)"></path>
                <path d="M60.3857615,148.323781 C87.7153089,166.634637 97.5115813,184.081153 89.7745786,200.663327 C78.1468356,225.584252 46.2584226,232.69861 60.0550136,257.274276 C69.252741,273.658054 71.7475439,284.905667 67.5394224,291.017114 L65.2771563,290.508342 C61.7498802,287.476502 58.3983859,284.152235 55.2565006,280.537909 C21.5746085,241.791325 24.2556921,183.829284 60.3857615,148.323781 L60.3857615,148.323781 Z" id="Shape" fill="url(#linearGradient-6)"></path>
                <path d="M217.283211,179.823129 C232.96143,217.22674 223.818006,262.006974 191.537909,290.067634 C163.232535,314.67312 124.672492,319.87286 92.1039388,306.802894 L91.9056506,303.791014 C103.155293,289.607853 114.124975,281.184315 124.814697,278.520402 C140.849279,274.524531 131.822001,302.337464 149.750692,297.343459 C167.679382,292.349453 152.606676,278.648312 173.936423,272.722927 C195.266171,266.797542 189.069571,243.181021 178.826757,221.625654 C171.998215,207.25541 184.265664,192.659739 215.629104,177.838641 L217.283211,179.823129 Z" id="Shape" fill="url(#linearGradient-7)"></path>
                <path d="M147.857316,153.717508 C159.977309,164.256125 170.734464,150.734103 174.540117,166.145553 C178.34577,181.557004 147.44747,179.519804 142.17739,194.278043 C136.907309,209.036282 121.537697,197.029126 118.870268,182.124516 C116.202839,167.219905 87.6605496,156.205715 94.618375,143.083403 C101.5762,129.96109 129.701297,125.215273 136.615719,133.169405 C143.53014,141.123537 135.737322,143.178891 147.857316,153.717508 Z" id="Shape" fill="url(#linearGradient-8)"></path>
                <path d="M250,162 L283,162 C284.104569,162 285,162.895431 285,164 L285,165.305556 C285,166.410125 284.104569,167.305556 283,167.305556 L250,167.305556 C248.895431,167.305556 248,166.410125 248,165.305556 L248,164 C248,162.895431 248.895431,162 250,162 Z M250,172 L303,172 C304.104569,172 305,172.895431 305,174 L305,175.305556 C305,176.410125 304.104569,177.305556 303,177.305556 L250,177.305556 C248.895431,177.305556 248,176.410125 248,175.305556 L248,174 C248,172.895431 248.895431,172 250,172 Z" id="Shape" fill="url(#linearGradient-9)"></path>
                <path d="M281.997754,195.655306 C292.44199,198.077151 301.170388,202.794354 308.18295,209.806916 C315.264493,216.888459 320.198596,225.913061 322.985259,236.880721 C324.635168,243.374378 322.742998,250.257002 318.005394,254.994606 L292.499998,280.5 L238.499998,226.499998 L264.270817,200.72918 C268.908134,196.091863 275.609106,194.173884 281.997754,195.655306 Z" id="Shape" fill="url(#linearGradient-10)"></path>
                <path d="M249.316539,221.340311 L267.099244,203.557607 C270.760284,199.896568 276.050525,198.382374 281.094194,199.551917 C290.823972,201.808091 298.882385,206.163205 305.354523,212.635343 C311.909782,219.190602 316.493687,227.574682 319.108439,237.865743 C320.410999,242.992315 318.917181,248.425965 315.176967,252.166178 L297.760176,269.582969 C297.416155,257.345614 292.574248,245.211196 283.234457,235.871405 C273.842171,226.479119 261.623754,221.635421 249.316539,221.340311 Z" id="Shape" fill="url(#linearGradient-11)" opacity="0.340000004"></path>
                <path d="M179.538434,197.48953 C185.921766,196.013945 192.617163,197.924368 197.250622,202.543418 L223,228.212717 L169.044925,282 L143.560751,256.595078 C138.827089,251.876137 136.936493,245.020625 138.585029,238.552548 C141.369373,227.628093 146.299371,218.639041 153.375023,211.585394 C160.38175,204.600456 169.102887,199.901835 179.538434,197.48953 Z" id="Shape" fill="url(#linearGradient-12)"></path>
                <path d="M163.597733,271 L146.41855,253.938044 C142.657201,250.202362 141.154942,244.775295 142.464862,239.654935 C145.09439,229.376343 149.704197,221.002421 156.296499,214.455104 C162.805209,207.990808 170.909158,203.64097 180.693917,201.38753 C185.766087,200.219403 191.086222,201.731763 194.76795,205.388367 L211,221.509651 C198.704089,221.07293 186.265174,225.515717 176.878827,234.838013 C166.909343,244.739468 162.482311,258.061063 163.597733,271 Z" id="Shape" fill="url(#linearGradient-13)" opacity="0.340000004"></path>
                <path d="M215.831222,238.699832 C233.663063,220.867991 262.574189,220.867991 280.40603,238.699832 C298.237871,256.531673 298.237871,285.442799 280.40603,303.27464 L238.587572,345.093098 L174.012764,280.51829 L215.831222,238.699832 L215.831222,238.699832 Z" id="Shape" fill="url(#linearGradient-14)"></path>
                <path d="M218.066511,335.727275 L179.128595,296.789359 C162.858851,280.519615 162.858851,254.141149 179.128595,237.871405 C195.398339,221.601661 221.776805,221.601661 238.046549,237.871405 L282.693434,282.51829 L282.502755,282.708969 L294.244981,294.451195 C298.687195,298.893409 298.687195,306.09566 294.244981,310.537874 C289.802767,314.980088 282.600516,314.980088 278.158302,310.537874 L276.989398,309.36897 C278.091987,313.356613 277.076082,317.807279 273.94168,320.94168 C270.95091,323.932451 266.761744,324.994433 262.919906,324.127628 C264.13221,328.176064 263.139468,332.743892 259.94168,335.94168 C256.371894,339.511466 251.094776,340.333341 246.738828,338.407305 C247.887618,341.845352 247.093307,345.790054 244.355894,348.527467 C240.499466,352.383894 234.246962,352.383894 230.390535,348.527467 L217.828427,335.965359 L218.066511,335.727275 L218.066511,335.727275 Z" id="Shape" fill="url(#linearGradient-15)"></path>
                <path d="M162.097642,276.689786 C166.344593,272.442835 173.230262,272.442835 177.477214,276.689786 C181.724166,280.936738 181.724166,287.822407 177.477214,292.069359 L169.069359,300.477214 C164.822407,304.724166 157.936738,304.724166 153.689786,300.477214 C149.442835,296.230262 149.442835,289.344593 153.689786,285.097642 L162.097642,276.689786 Z" id="Shape" fill="url(#linearGradient-14)"></path>
                <path d="M225.424303,266.109088 L223.483,273.35413 C221.928508,279.155574 215.965343,282.598409 210.163899,281.043917 C204.362456,279.489425 200.919621,273.52626 202.474113,267.724816 L207.892146,247.504443 C208.132307,246.608149 208.477698,245.768151 208.911464,244.994181 C209.991891,242.128732 212.032754,239.605189 214.891777,237.954531 L222.875351,233.345212 C234.596835,226.577811 249.403166,228.532915 258.966327,238.11085 L259.616423,238.76195 C264.702662,243.856047 264.696292,252.108841 259.602195,257.19508 C257.833995,258.960552 255.595599,260.180576 253.153612,260.709841 L230.151307,265.695249 C228.572514,266.037429 226.98578,266.170475 225.424303,266.109088 L225.424303,266.109088 Z" id="Shape" fill="url(#linearGradient-16)"></path>
                <path d="M173.855001,293.689786 C178.101953,289.442835 184.987622,289.442835 189.234573,293.689786 C193.481525,297.936738 193.481525,304.822407 189.234573,309.069359 L182.948038,315.355894 C178.701087,319.602845 171.815418,319.602845 167.568466,315.355894 C163.321514,311.108942 163.321514,304.223273 167.568466,299.976321 L173.855001,293.689786 Z" id="Shape" fill="url(#linearGradient-14)"></path>
                <path d="M189.855001,307.689786 C194.101953,303.442835 200.987622,303.442835 205.234573,307.689786 C209.481525,311.936738 209.481525,318.822407 205.234573,323.069359 L198.948038,329.355894 C194.701087,333.602845 187.815418,333.602845 183.568466,329.355894 C179.321514,325.108942 179.321514,318.223273 183.568466,313.976321 L189.855001,307.689786 Z" id="Shape" fill="url(#linearGradient-14)"></path>
                <path d="M205.746375,321.629126 C209.40754,317.967961 215.343461,317.967961 219.004627,321.629126 C222.665792,325.290291 222.665792,331.226213 219.004627,334.887378 L211.303878,342.588127 C207.642713,346.249292 201.706791,346.249292 198.045626,342.588127 C194.384461,338.926962 194.384461,332.99104 198.045626,329.329875 L205.746375,321.629126 Z" id="Shape" fill="url(#linearGradient-14)"></path>
            </g>
        </g>
    </g>
</svg>