<?xml version="1.0" encoding="UTF-8"?>
<!-- Generator: Adobe Illustrator 25.2.3, SVG Export Plug-In . SVG Version: 6.00 Build 0)  -->
<svg xmlns="http://www.w3.org/2000/svg" xmlns:xlink="http://www.w3.org/1999/xlink" version="1.1" id="Capa_1" x="0px" y="0px" viewBox="0 0 512 512" style="enable-background:new 0 0 512 512;" xml:space="preserve" width="512" height="512">
<g>
	<g>
		<g>
			<path style="fill:#6CE1C1;" d="M56.826,237.676L37.2,233.53l0.245-2.181c0.06-0.537,0.105-0.95,0.16-1.365l0.397-3.016     c0.385-2.94,0.77-5.883,1.215-8.818c0.073-0.481,0.084-0.554-0.581-1.006c-1.662-1.128-3.283-2.313-4.905-3.5     c-1.427-1.043-2.856-2.086-4.312-3.089c-0.145-0.081-0.602-0.098-0.766-0.029c-1.8,0.85-3.572,1.758-5.346,2.669     c-1.149,0.589-2.299,1.18-3.457,1.753c-2.492,1.241-3.868,1.917-5.479,0.984l-0.266-0.154l-9.055-14.367l-0.022-0.315     c-0.104-1.524,0.946-2.313,2.688-3.619c2.907-2.181,5.863-4.398,8.701-6.682c0.094-0.105,0.223-0.53,0.198-0.703     c-0.252-1.595-0.548-3.187-0.846-4.777c-0.352-1.885-0.703-3.773-0.983-5.668c-0.112-0.767-0.143-0.777-0.642-0.923     c-3.296-0.967-6.57-2-9.826-3.028l-4.281-1.348l-0.031-0.884c-0.155-4.489,2.195-14.875,4.123-18.223l0.414-0.718l4.467,0.545     c3.232,0.386,6.5,0.777,9.752,1.26c0.861,0.127,0.988,0.11,1.514-0.755c1.884-3.101,4.099-6.069,6.016-8.562     c0.772-1.004,0.768-1.223,0.401-1.893c-1.128-2.061-2.181-4.161-3.235-6.259c-0.751-1.497-1.502-2.996-2.281-4.479     c-1.134-2.159,0.07-3.355,0.888-3.878l13.16-8.374c1.929-1.221,3.109,0.374,3.495,0.894l1.035,1.309     c2.11,2.647,4.293,5.382,6.349,8.154c0.523,0.701,0.767,0.852,1.84,0.593c2.79-0.684,5.57-1.231,8.513-1.812l2.822-0.562     l4.739-14.259l0.944,0.044c6.043,0.271,11.909,1.575,17.93,3.981l0.904,0.359l-1.938,14.577l2.499,1.8     c2.701,1.937,5.252,3.766,7.751,5.724c0.585,0.457,0.658,0.444,1.271,0.12c2.009-1.055,4.033-2.076,6.058-3.099     c1.562-0.786,3.123-1.575,4.678-2.379c0.595-0.305,2.178-1.126,3.545,0.469c3.981,4.625,6.686,8.762,8.514,13.021     c0.841,1.963-0.182,3.055-1.024,3.707c-1.485,1.148-2.96,2.305-4.436,3.465c-1.773,1.392-3.546,2.786-5.336,4.159     c-0.47,0.359-0.498,0.381-0.387,0.955c0.686,3.556,1.272,7.351,1.79,11.6c0.032,0.256,0.078,0.332,0.078,0.335l0,0     c0.005,0,0.082,0.054,0.377,0.147c3.382,1.072,6.757,2.161,10.182,3.27l4.126,1.331l-0.078,0.987     c-0.535,6.718-1.801,12.323-3.983,17.637l-0.361,0.879l-15.269-1.834l-7.734,10.933l1.188,2.352     c1.193,2.354,2.465,4.87,3.71,7.397c0.194,0.396,0.368,0.728,0.517,1.011c1.27,2.423,0.895,3.033-1.408,4.818l-0.495,0.383     c-0.07,0.056-0.181,0.195-0.278,0.32l-0.526,0.54l-7.922,4.96c-0.42,0.19-0.654,0.274-0.888,0.354     c-0.397,0.137-0.77,0.266-1.039,0.44c-2.114,1.368-3.862,1.038-5.352-1.016c-2.264-3.126-4.776-6.174-7.203-9.124l-0.221-0.269     c-0.083-0.073-0.425-0.21-0.537-0.176c-1.321,0.195-2.642,0.435-3.961,0.674c-2.12,0.383-4.312,0.781-6.509,0.991     c-1.151,0.11-1.33,0.347-1.659,1.399c-0.928,2.977-1.945,5.927-3.014,9.028L56.826,237.676z M39.94,231.551l15.234,3.219     l0.984-2.869c1.06-3.077,2.068-6.005,2.99-8.96c0.537-1.719,1.391-2.911,3.808-3.143c2.094-0.198,4.232-0.586,6.301-0.962     c1.347-0.244,2.694-0.488,4.047-0.689c0.955-0.137,2.214,0.32,2.829,1.062l0.221,0.269c2.452,2.979,4.988,6.059,7.298,9.248     c0.703,0.967,0.979,1.026,1.968,0.381c0.523-0.337,1.082-0.53,1.576-0.703c0.194-0.066,0.387-0.132,0.575-0.21l7.618-4.83     c0.177-0.222,0.396-0.501,0.702-0.74l0.503-0.391c0.443-0.342,0.899-0.696,1.112-0.904c-0.083-0.193-0.243-0.498-0.388-0.777     c-0.158-0.3-0.341-0.65-0.546-1.067c-1.239-2.52-2.508-5.026-3.696-7.373l-1.867-3.697l9.462-13.378l14.852,1.785     c1.764-4.547,2.845-9.368,3.366-15.021l-2.238-0.723c-3.421-1.106-6.791-2.195-10.169-3.265     c-0.963-0.305-1.974-0.847-2.183-2.562c-0.51-4.191-1.088-7.929-1.763-11.429c-0.287-1.487,0.096-2.476,1.321-3.414     c1.783-1.365,3.548-2.752,5.313-4.139c1.481-1.165,2.962-2.327,4.452-3.478c0.31-0.239,0.366-0.347,0.372-0.359l0,0     c-0.002,0,0-0.11-0.117-0.383c-1.724-4.017-4.303-7.951-8.113-12.379c-0.045-0.088-0.16-0.051-0.501,0.125     c-1.56,0.806-3.13,1.6-4.7,2.391c-2.012,1.013-4.023,2.029-6.017,3.077c-1.492,0.791-2.645,0.686-3.979-0.364     c-2.458-1.924-4.988-3.739-7.667-5.661l-3.717-2.681l1.877-14.118c-5.127-1.956-10.14-3.072-15.268-3.399l-4.596,13.83     l-4.254,0.852c-2.915,0.574-5.667,1.116-8.402,1.785c-1.985,0.486-3.277,0.039-4.442-1.531c-2.032-2.735-4.2-5.453-6.297-8.083     l-1.089-1.38c-0.053-0.071-0.12-0.161-0.182-0.239l-13.121,8.34c-0.133,0.085-0.19,0.144-0.209,0.166     c0.013,0.01,0.039,0.149,0.192,0.44c0.786,1.497,1.545,3.009,2.303,4.52c1.04,2.071,2.079,4.144,3.192,6.178     c1.129,2.061,0.277,3.465-0.611,4.618c-1.971,2.562-4.045,5.346-5.862,8.337c-1.027,1.687-2.127,2.213-4.018,1.927     c-3.228-0.476-6.473-0.865-9.682-1.25l-2.783-0.337c-1.518,3.338-3.281,11.209-3.423,15.292l2.563,0.806     c3.239,1.023,6.498,2.054,9.777,3.016c1.716,0.503,2.205,1.546,2.412,2.957c0.275,1.863,0.622,3.717,0.968,5.573     c0.3,1.614,0.602,3.228,0.857,4.848c0.144,0.918-0.236,2.34-1.098,3.038c-2.873,2.313-5.846,4.542-8.723,6.701     c-0.708,0.532-1.403,1.053-1.653,1.341l8.234,13.063c0.404,0.056,1.087-0.242,2.895-1.14l0,0     c1.148-0.569,2.287-1.153,3.427-1.736c1.797-0.923,3.595-1.844,5.42-2.706c0.956-0.449,2.412-0.349,3.252,0.232     c1.474,1.016,2.921,2.073,4.368,3.131c1.597,1.167,3.195,2.335,4.832,3.446c1.023,0.694,1.933,1.592,1.65,3.453     c-0.441,2.918-0.824,5.841-1.206,8.767l-0.398,3.021C40.034,230.689,39.993,231.07,39.94,231.551z M60.825,195.992     c-6.379,0-12.593-3.133-16.2-8.857l0,0c-2.691-4.271-3.552-9.346-2.424-14.289c1.15-5.038,4.213-9.331,8.624-12.096     c9.027-5.646,20.926-3.009,26.53,5.883c2.692,4.271,3.553,9.346,2.424,14.294c-1.15,5.036-4.213,9.329-8.625,12.091     C67.939,195.032,64.356,195.992,60.825,195.992z M61.16,160.277c-3.078,0-6.2,0.838-9.006,2.594     c-3.844,2.408-6.513,6.149-7.513,10.53c-0.98,4.293-0.234,8.696,2.1,12.401l0,0c4.872,7.732,15.228,10.013,23.088,5.097     c3.844-2.405,6.513-6.147,7.514-10.528c0.979-4.293,0.233-8.699-2.101-12.403C72.108,162.997,66.707,160.277,61.16,160.277z"/>
		</g>
		<g>
			<path style="fill:#6CE1C1;" d="M145.264,145.169c1.42,0.03,1.216,0.001,1.403-1.348c0.228-1.643,0.428-3.291,0.612-4.72     c1.938-0.744,3.749-1.439,5.619-2.157c1.49,1.307,3.047,2.674,4.614,4.049c2.036-1.373,3.701-3.053,5.206-4.96     c-1.179-1.527-2.325-3.019-3.482-4.503c-0.208-0.266-0.278-0.455-0.095-0.816c0.716-1.414,1.397-2.848,2.014-4.307     c0.178-0.421,0.377-0.521,0.779-0.546c1.662-0.102,3.321-0.244,4.982-0.353c0.413-0.027,0.629-0.147,0.717-0.607     c0.393-2.064,0.337-4.128,0.103-6.2c-0.046-0.41-0.288-0.478-0.635-0.518c-1.606-0.188-3.208-0.416-4.815-0.593     c-0.463-0.051-0.666-0.192-0.821-0.681c-0.535-1.69-1.167-3.35-1.811-5.155c1.188-1.354,2.537-2.891,3.885-4.427     c-1.39-2.079-3.005-3.842-4.961-5.316c-1.66,1.295-3.275,2.555-4.738,3.696c-1.595-0.668-3.063-1.328-4.566-1.889     c-0.568-0.212-0.782-0.478-0.807-1.076c-0.066-1.591-0.194-3.18-0.314-4.768c-0.023-0.314,0.034-0.722-0.481-0.735     c-2.095-0.055-4.189-0.112-6.284-0.165c-0.445-0.012-0.609,0.218-0.658,0.656c-0.182,1.631-0.436,3.254-0.591,4.887     c-0.06,0.63-0.372,0.807-0.906,0.988c-1.318,0.446-2.634,0.92-3.893,1.508c-0.542,0.253-0.808,0.211-1.226-0.177     c-1.341-1.245-2.731-2.437-4.073-3.625c-1.329,0.659-4.389,3.587-5.293,5.044c1.15,1.462,2.297,2.953,3.485,4.411     c0.297,0.365,0.263,0.602,0.071,1.005c-0.62,1.301-1.147,2.645-1.753,3.952c-0.102,0.22-0.409,0.465-0.639,0.485     c-1.466,0.127-2.937,0.203-4.407,0.279c-0.822,0.043-1.154,0.057-1.328,0.359l-0.225,6.679c0.206,0.433,0.6,0.49,1.664,0.633     c1.315,0.177,2.636,0.308,3.946,0.511c0.239,0.037,0.554,0.28,0.64,0.502c0.551,1.434,1.02,2.901,1.58,4.331     c0.163,0.416,0.176,0.67-0.133,1.01c-1.088,1.195-2.144,2.42-3.21,3.635c-0.173,0.197-0.339,0.4-0.633,0.748     c1.657,1.739,3.296,3.459,4.977,5.222c1.555-1.196,2.986-2.261,4.371-3.382c0.488-0.395,0.819-0.48,1.425-0.146     c1.238,0.683,2.571,1.193,3.847,1.813c0.196,0.095,0.401,0.38,0.42,0.594c0.149,1.633,0.302,3.269,0.351,4.907     c0.024,0.786,0.341,1.058,1.063,1.072L145.264,145.169z M133.072,120.794c0.201-5.97,5.204-10.646,11.174-10.445l0,0     c5.97,0.201,10.646,5.203,10.445,11.173l0,0c-0.201,5.97-5.203,10.646-11.173,10.445l0,0     C137.548,131.766,132.872,126.764,133.072,120.794L133.072,120.794z"/>
		</g>
		<g>
			<path style="fill:#9CF0E7;" d="M314.265,63.283c37.774-14.498,88.252-18.007,124.308,2.877     c43.257,25.055,55.449,75.403,60.564,121.429c11.201,100.791-2.682,229.086-99.058,285.54     c-42.149,24.689-98.714,31.459-146.8,30.997c-65.788-0.633-167.332-14.873-194.961-85.257c-0.18-0.47-0.361-0.94-0.541-1.41     c-14.845-39.998,4.583-84.879,29.319-116.447c9.471-12.087,20.381-23.126,32.591-32.455c4.409-3.368,8.904-6.624,13.445-9.812     c21.006-14.749,42.671-28.807,61.307-46.592C236.966,171.57,224.658,97.676,314.265,63.283z"/>
		</g>
		<g>
			<g>
				<g>
					<path style="fill:#FF9D3D;" d="M191.299,308.988c-4.627,2.072-8.683,8.79-11.841,12.619       c-3.921,4.754-7.681,9.663-10.905,14.922c-6.411,10.456-10.244,22.179-9.685,34.536c0.818,18.125,8.757,37.097,22.528,49.185       c0.497,0.436,0.995,0.883,1.538,1.263c0,0-15.644,16.733-20.372,35.558c-4.728,18.825,4.405,23.804,7.299,22.485       c7.184-3.274,13.426-46.539,29.198-51.768c15.772-5.229,7.483-11.504,7.483-11.504s35.517,4.706,53.277-32.421       s-35.085-89.835-35.085-89.835S191.304,308.985,191.299,308.988z"/>
				</g>
				<g style="opacity:0.2;">
					<path style="fill:#AF312F;" d="M191.299,308.988c-4.627,2.072-8.683,8.79-11.841,12.619       c-3.921,4.754-7.681,9.663-10.905,14.922c-6.411,10.456-10.244,22.179-9.685,34.536c0.818,18.125,8.757,37.097,22.528,49.185       c0.497,0.436,0.995,0.883,1.538,1.263c0,0-15.644,16.733-20.372,35.558c-4.728,18.825,4.405,23.804,7.299,22.485       c7.184-3.274,13.426-46.539,29.198-51.768c15.772-5.229,7.483-11.504,7.483-11.504s35.517,4.706,53.277-32.421       s-35.085-89.835-35.085-89.835S191.304,308.985,191.299,308.988z"/>
				</g>
			</g>
			<g>
				<path style="fill:#AF312F;" d="M171.293,478.38c-0.943-1.046-1.58-2.258-2.079-3.513c-0.506-1.258-0.829-2.579-1-3.937      c-0.122-1.36-0.149-2.752,0.161-4.124c0.296-1.36,0.858-2.718,1.846-3.724c-0.055,2.763,0.181,5.058,0.475,7.562      C170.953,473.129,171.335,475.604,171.293,478.38z"/>
			</g>
		</g>
		<g>
			<path style="fill:#FF9D3D;" d="M427.901,266.08c-0.072-0.89-0.149-1.779-0.23-2.669c-0.322-3.647-0.697-7.308-1.167-10.969     c-0.295-2.467-0.63-4.948-1.006-7.416c-0.746-4.905-1.558-9.808-2.548-14.67c-0.818-4.103-1.716-8.18-2.722-12.229     c-0.496-2.012-1.006-4.01-1.542-6.007c-2.149-8.046-4.75-15.925-7.697-23.708c-2.092-5.525-4.412-10.875-6.919-16.025     c-3.001-6.162-6.438-12.379-10.259-18.157c-2.937-4.492-6.088-8.743-9.44-12.699c-1.515-1.81-3.084-3.553-4.707-5.23     c-3.125-3.285-6.437-6.316-9.91-9.065c-3.49-2.781-7.163-5.25-10.991-7.43c5.311-6.884,8.476-14.174,9.757-21.712     c0.922-5.406,0.904-10.928,0.029-16.522c-0.248-1.601-0.563-3.196-0.943-4.815c-0.186-0.775-0.386-1.547-0.598-2.315     l-0.028-0.089c-1.282-4.634-3.1-9.307-5.395-13.968c-0.676-1.306-1.367-2.602-2.057-3.9c-2.156-3.777-4.917-7.109-8.243-10.013     c-0.452-0.45-15.358-14.753-20.793-22.076c-5.522-7.423-10.594-17.559-15.71-16.462c-4.624,0.997-12.03,13.338-10.941,24.812     c-2.61-0.004-5.287,0.05-8.058,0.189c-0.417,0.023-0.851,0.037-1.277,0.077c-4.033,0.219-8.216,0.592-12.588,1.131     c-1.783,0.222-3.602,0.468-5.442,0.734c-7.939,1.163-16.392,2.804-25.342,4.935c-0.29,0.069-0.579,0.139-0.855,0.204     c-0.998,0.245-1.983,0.487-2.934,0.746c-2.615,0.683-5.102,1.412-7.496,2.169l-0.423-0.224c-1.796-0.99-4.17-2.519-4.449-2.688     c-3.651-2.309-6.515-5.894-9.9-8.528c-4.922-3.836-11.351-5.844-17.377-2.868c-0.379,0.192-0.694,0.448-0.965,0.802     c-0.697,0.891-1.08,2.286-1.189,4.017c-0.402,6.21,2.702,16.566,6.783,22.234c0.079,0.116,0.174,0.24,0.266,0.352     c-10.671,7.697-16.672,16.759-19.75,26.212c-0.219,0.657-0.407,1.319-0.596,1.981c-0.75,2.662-1.278,5.356-1.638,8.044     c-0.016,0.129-0.032,0.258-0.035,0.383c-0.181,1.365-0.305,2.727-0.387,4.091c-0.042,0.634-0.075,1.252-0.091,1.878     c-0.107,3.181-0.007,6.345,0.236,9.467c0.026,0.352,0.064,0.7,0.098,1.036c0.029,0.365,0.068,0.713,0.106,1.061     c0.177,1.649,0.424,3.25,0.724,4.794c0.011,0.08,0.031,0.143,0.042,0.223c0.367,1.94,0.823,3.799,1.34,5.585     c0.241,0.815,0.491,1.614,0.751,2.396c4.374,13.101,12.129,21.692,16.763,25.916c0.941,0.859,3.697,3.5,6.586,6.284     c-7.638,10.97-19.365,33.282-21.73,69.183c-0.55,8.381-1.69,17.526-2.897,27.101c-6.571,52.204-15.112,117.026,58.694,140.613     c0,0,0.926,1.22,2.682,3.218c5.096,5.78,17.124,18.063,33.524,25.867c0,0-29.38,18.049-31.03,34.342     c-1.663,16.306,10.701,9.467,14.415,5.31c3.715-4.144,17.661-29.756,32.813-33.832c15.153-4.076,6.973-19.793,6.973-19.793     s14.871,2.306,34.14-0.174c6.326-0.814,12.673-2.105,18.801-3.875c7.735-2.234,15.266-5.344,22.22-9.413     c6.599-3.863,12.666-8.541,18.022-14c5.454-5.558,10.023-11.805,13.329-18.867c2.467-5.27,4.573-11.385,6.303-18.157     c1.261-4.894,2.32-10.138,3.178-15.689c1.349-8.726,2.138-17.582,2.467-26.403C429.082,289.233,428.84,277.628,427.901,266.08z"/>
		</g>
		<g>
			<g>
				<g>
					<path style="fill:#FF9D3D;" d="M509.497,147.15c-2.83,4.291-7.992,8.475-15.18,11.21c-1.529,0.576-3.044,1.167-4.56,1.77       c-8.166,3.245-16.078,6.946-22.555,12.578c-9.025,7.858-15.274,19.471-15.515,38.848c-0.067,4.988,0.443,10.339,1.167,15.89       c0.778,6.034,1.797,12.283,2.575,18.532c3.701,29.367,2.28,58.573-53.571,63.481c0,0-8.824-17.848,4.599-20.49       c0,0,8.167-0.536,16.641-3.742c6.182-2.347,12.538-6.101,16.025-12.109c0.241-0.402,0.442-0.845,0.63-1.301       c5.31-12.605-5.471-44.171-6.49-69.958c-0.241-6.128,0.054-11.921,1.26-17.057c0.952-4.076,2.508-8.099,4.533-11.988       c6.906-13.249,19.296-25.023,32.156-32.693c8.957-5.35,18.143-8.703,25.867-9.172       C511.656,130.066,515.008,138.796,509.497,147.15z"/>
				</g>
				<g style="opacity:0.2;">
					<path style="fill:#AF312F;" d="M509.497,147.15c-2.83,4.291-7.992,8.475-15.18,11.21c-1.529,0.576-3.044,1.167-4.56,1.77       c-8.166,3.245-16.078,6.946-22.555,12.578c-9.025,7.858-15.274,19.471-15.515,38.848c-0.067,4.988,0.443,10.339,1.167,15.89       c0.778,6.034,1.797,12.283,2.575,18.532c3.701,29.367,2.28,58.573-53.571,63.481c0,0-8.824-17.848,4.599-20.49       c0,0,8.167-0.536,16.641-3.742c6.182-2.347,12.538-6.101,16.025-12.109c0.241-0.402,0.442-0.845,0.63-1.301       c5.31-12.605-5.471-44.171-6.49-69.958c-0.241-6.128,0.054-11.921,1.26-17.057c0.952-4.076,2.508-8.099,4.533-11.988       c6.906-13.249,19.296-25.023,32.156-32.693c8.957-5.35,18.143-8.703,25.867-9.172       C511.656,130.066,515.008,138.796,509.497,147.15z"/>
				</g>
			</g>
			<g>
				<path style="fill:#AF312F;" d="M509.497,147.15c-3.715-0.148-7.215-3.782-7.215-3.782c-15.649,4.318-25.773,0.268-31.07-3.245      c8.957-5.35,18.143-8.703,25.867-9.172C511.656,130.066,515.008,138.796,509.497,147.15z"/>
			</g>
			<g>
				<path style="fill:#AF312F;" d="M489.757,160.131c-8.166,3.245-16.078,6.946-22.555,12.578      c-1.073-3.701-1.542-9.588,3.741-14.348C476.348,153.493,484.582,157.006,489.757,160.131z"/>
			</g>
			<g>
				<path style="fill:#AF312F;" d="M445.747,189.243c-1.127,6.785-7.442,10.62-12.484,12.618c-0.241-6.128,0.054-11.921,1.26-17.057      c0.952-4.076,2.508-8.099,4.533-11.988C442.395,175.458,447.088,181.197,445.747,189.243z"/>
			</g>
			<g>
				<path style="fill:#AF312F;" d="M455.429,245.979c-4.586-1.22-9.762-3.808-9.44-9.253c0.268-4.841,3.607-7.657,6.866-9.28      C453.632,233.481,454.651,239.73,455.429,245.979z"/>
			</g>
			<g>
				<path style="fill:#AF312F;" d="M439.941,288.97c-7.429,5.216-13.959-0.47-16.843-3.742c6.182-2.347,12.538-6.101,16.025-12.109      c0.241-0.402,0.442-0.845,0.63-1.301C442.971,276.673,446.431,284.411,439.941,288.97z"/>
			</g>
		</g>
		<g>
			<path style="fill:#FFC893;" d="M244.701,294.044l43.122-0.246c0,0-32.988,2.025-45.673,31.365     c-10.795,24.955,0,54.859,11.412,70.508c-0.027,0.027-0.04,0.04-0.067,0.067c-1.757-1.998-2.682-3.218-2.682-3.218     c-73.806-23.587-65.264-88.41-58.694-140.613c13.973-38.794,37.373-60.974,66.311-59.485     c33.403,1.716,44.413,28.482,47.296,38.07c-3.714,6.048-12.793,20.074-18.867,23.521     C286.857,254.011,240.591,253.5,244.701,294.044z"/>
		</g>
		<g>
			<path style="fill:#AF312F;" d="M312.359,33.063c-4.839-0.503-8.335-0.327-8.519-0.329c-1.088-11.461,6.318-23.802,10.942-24.799     l0.013-0.004c1.422,2.327,3.103,5.119,3.192,12.128c0.004,0.69,0.056,1.352,0.13,1.994     C319.164,31.577,316.967,33.549,312.359,33.063z"/>
		</g>
		<g>
			<path style="fill:#AF312F;" d="M216.663,53.257c-1.633,0.883-3.161,1.737-4.334,2.42c-4.081-5.667-7.185-16.024-6.783-22.234     c0.109-1.731,0.491-3.126,1.188-4.017c0,0,2.65,0.468,5.979,5.495c1.211,1.835,2.317,3.604,3.496,5.2     C219.005,43.892,221.975,50.349,216.663,53.257z"/>
		</g>
		<g style="opacity:0.48;">
			<path style="fill:#EB4949;" d="M314.034,115.586c-2.487,2.623-1.969,6.803,1.909,8.132c5.191,1.779,13.641-0.567,16.845-4.933     c2.705-3.686-0.665-8.613-4.603-8.775c-3.328-0.138-6.59,0.854-9.462,2.35C317.387,113.056,315.428,114.117,314.034,115.586z"/>
		</g>
		<g style="opacity:0.48;">
			<path style="fill:#EB4949;" d="M229.84,128.091c3.274,1.686,4.266,5.788,1.085,8.266c-4.261,3.317-13.055,3.777-17.623,0.675     c-3.856-2.618-2.426-8.326,1.227-9.724c3.088-1.182,6.514-1.278,9.75-0.776C225.784,126.766,228.006,127.147,229.84,128.091z"/>
		</g>
		<g>
			<path style="fill:#AF312F;" d="M276.477,34.877c-4.304,5.673-6.709,13.481-8.688,19.398c-1.091,3.243-2.008,6.547-2.805,9.872     c-0.604,2.495-2.115,5.168-4.753,6.092c-3.314,1.16-6.857-0.351-9.201-2.731c-2.939-2.969-3.94-7.021-4.212-11.005     c-0.381-5.639,0.954-11.357,3.462-16.486c0.277-0.066,0.566-0.135,0.855-0.204C260.086,37.681,268.539,36.04,276.477,34.877z"/>
		</g>
		<g>
			<path style="fill:#AF312F;" d="M201.922,110.352c-3.529,1.332-7.606,0.914-11.383-0.17c-0.039-0.348-0.077-0.696-0.106-1.061     c-0.034-0.336-0.073-0.684-0.098-1.036c-0.243-3.122-0.343-6.286-0.237-9.467C198.569,103.397,208.534,107.843,201.922,110.352z"/>
		</g>
		<g>
			<path style="fill:#AF312F;" d="M202.664,119.895c-2.096,1.888-5.731,2.835-9.267,3.285c-0.259-0.782-0.509-1.581-0.751-2.396     c-0.517-1.786-0.972-3.645-1.34-5.585c-0.011-0.08-0.031-0.143-0.042-0.223C198.852,115.45,206.359,116.567,202.664,119.895z"/>
		</g>
		<g>
			<path style="fill:#AF312F;" d="M197.406,94.404c-2.095,0.132-4.497-0.628-6.83-1.754c0.003-0.125,0.019-0.254,0.036-0.383     c0.36-2.688,0.888-5.382,1.638-8.044C197.65,89.041,202.261,94.1,197.406,94.404z"/>
		</g>
		<g>
			<path style="fill:#AF312F;" d="M294.507,33.012c-1.083,1.735-2.3,3.674-3.161,5.123c-2.719,4.595-5.271,10.76-7.901,11.889     c-5.496,2.367-9.014-2.674-6.474-9.015c1.16-2.89,3.137-5.199,4.949-6.867l0.013-0.004     C286.291,33.604,290.474,33.231,294.507,33.012z"/>
		</g>
		<g>
			<path style="fill:#AF312F;" d="M247.346,40.763c-2.18,4.33-4.042,11.25-6.869,12.836c-4.26,2.385-8.573-0.41-7.139-3.282     c1.389-2.79,3.195-5.105,4.828-6.846C241.063,42.514,244.117,41.608,247.346,40.763z"/>
		</g>
		<g>
			<g>
				<g>
					<path style="fill:#FFFFFF;" d="M324.034,109.74c-5.149,5.28-14.348,8.56-21.814,7.348c-1.595-0.26-3.133-0.744-4.583-1.488       c-6.285-3.265-11.002-10.284-12.536-16.987c-0.048-0.152-0.082-0.308-0.117-0.464c-1.421-6.792,1.173-13.728,6.49-18.2       c6.225-5.23,16.48-8.661,24.255-4.567c3.067,1.62,5.781,4.184,7.905,7.263l0.013-0.004       C329.34,90.831,330.925,102.66,324.034,109.74z"/>
				</g>
				<g>
					<path style="fill:#AF312F;" d="M324.034,109.74c-2.947,3.013-6.743,5.072-10.718,6.418c-1.999,0.662-4.074,1.107-6.18,1.299       c-2.104,0.201-4.252,0.145-6.351-0.312c-2.103-0.451-4.091-1.414-5.853-2.629c-1.773-1.217-3.367-2.683-4.774-4.309       c-2.814-3.255-4.886-7.153-6.005-11.377l0.02,0.074c-1.312-5.045-0.444-10.376,2.212-14.749c1.318-2.17,3.045-4.118,5.06-5.632       c1.983-1.534,4.144-2.812,6.44-3.79c4.57-1.906,9.794-2.773,14.706-1.405c2.453,0.657,4.676,1.967,6.559,3.549       c1.904,1.584,3.514,3.471,4.857,5.512l-0.497-0.178l0.013-0.003l0.325-0.084l0.172,0.261c1.363,2.074,2.448,4.318,3.231,6.654       c0.773,2.338,1.269,4.767,1.401,7.217c0.128,2.449-0.152,4.92-0.888,7.253C327.025,105.837,325.754,108.003,324.034,109.74z        M324.034,109.74c1.702-1.755,2.947-3.929,3.659-6.255c0.73-2.328,0.904-4.8,0.712-7.215c-0.384-4.851-2.322-9.491-5.129-13.37       l0.496,0.177l-0.013,0.004l-0.298,0.093l-0.199-0.272c-1.395-1.906-3.031-3.633-4.898-5.033       c-1.866-1.409-3.943-2.488-6.175-2.964c-4.481-0.978-9.231-0.048-13.428,1.833c-4.203,1.917-8.072,4.736-10.44,8.595       c-1.181,1.931-1.996,4.076-2.4,6.302c-0.196,1.112-0.31,2.245-0.273,3.378c-0.012,0.568,0.066,1.131,0.106,1.697       c0.091,0.534,0.157,1.174,0.277,1.61l0.019,0.07l0.001,0.005c0.834,3.939,2.604,7.751,5.127,10.975       c1.261,1.612,2.71,3.085,4.341,4.328c1.632,1.246,3.446,2.241,5.435,2.774c3.989,1.068,8.317,0.704,12.308-0.49       C317.265,114.789,321.049,112.698,324.034,109.74z"/>
				</g>
			</g>
			<g>
				<path style="fill:#AF312F;" d="M309.451,111.176c5.602-0.774,10.964-4.495,12.816-9.805c2.95-8.461-2.656-18.742-11.565-20.94      c-4.783-1.18-10.474-0.096-14.292,2.928c-10.204,8.082-3.826,25.226,8.405,27.704      C306.322,111.368,307.892,111.391,309.451,111.176z"/>
			</g>
			<g style="opacity:0.21;">
				<path style="fill:#AF312F;" d="M323.635,82.645c-27.027-4.144-37.328,13.672-38.533,15.967      c-0.048-0.152-0.082-0.308-0.117-0.464c-1.421-6.792,1.173-13.728,6.49-18.2c6.225-5.23,16.48-8.661,24.255-4.567      C318.797,77.002,321.511,79.566,323.635,82.645z"/>
			</g>
		</g>
		<g>
			<g>
				<g>
					<path style="fill:#FFFFFF;" d="M244.42,110.344c-1.325,6.199-7.541,10.196-13.444,11.672c-0.816,0.193-1.64,0.319-2.461,0.362       c-9.928,0.546-19.219-10.147-18.473-19.731c0.059-0.985,0.247-1.964,0.542-2.92c2.616-8.353,14.078-14.521,22.782-11.661       c2.103,0.708,3.819,2.302,5.198,3.951c0.946,1.124,1.849,2.426,2.659,3.837C243.795,100.27,245.408,105.735,244.42,110.344z"/>
				</g>
				<g>
					<path style="fill:#AF312F;" d="M244.42,110.344c-0.256,1.103-0.633,2.179-1.168,3.182c-0.554,0.989-1.208,1.925-1.979,2.761       c-1.539,1.671-3.393,3.05-5.42,4.095c-1.012,0.524-2.052,1.004-3.132,1.386c-1.071,0.393-2.181,0.735-3.337,0.897       c-2.308,0.282-4.694,0.062-6.914-0.706c-4.467-1.511-8.19-4.797-10.708-8.786c-1.228-2.022-2.19-4.25-2.622-6.635       c-0.09-0.598-0.146-1.204-0.217-1.806c-0.05-0.604-0.009-1.214-0.014-1.821c0.014-1.212,0.242-2.465,0.615-3.63       c1.602-4.726,5.333-8.25,9.53-10.368c4.212-2.092,9.191-2.947,13.753-1.59c2.362,0.597,4.225,2.289,5.67,4.036       c1.476,1.771,2.641,3.757,3.639,5.8c1.001,2.046,1.761,4.208,2.209,6.433C244.778,105.808,244.905,108.124,244.42,110.344z        M244.42,110.344c0.871-4.495-0.485-9.105-2.592-13.039c-1.071-1.982-2.372-3.839-3.897-5.466       c-1.52-1.61-3.307-3.017-5.428-3.399c-4.255-0.99-8.77,0.125-12.514,2.228c-1.896,1.042-3.608,2.399-5.05,3.966       c-1.444,1.561-2.595,3.385-3.22,5.346c-1.252,3.935-0.374,8.466,1.752,12.19c2.092,3.747,5.331,7.059,9.402,8.712       c2.02,0.844,4.226,1.19,6.428,1.066c1.1-0.084,2.186-0.345,3.263-0.663c1.077-0.312,2.135-0.701,3.147-1.191       c2.029-0.962,3.937-2.232,5.499-3.868c0.777-0.821,1.439-1.743,2.005-2.722C243.76,112.513,244.15,111.444,244.42,110.344z"/>
				</g>
			</g>
			<g>
				<path style="fill:#AF312F;" d="M223.328,115.646c0.469,0.211,5.237,3.53,12.387-0.868c7.15-4.398,3.47-14.016,1.359-16.924      c-2.11-2.908-8.118-8.472-16.368-3.758C212.456,98.81,215.262,112.017,223.328,115.646z"/>
			</g>
			<g style="opacity:0.21;">
				<path style="fill:#AF312F;" d="M241.223,95.854c-12.238-3.171-24.884,2.965-31.181,6.793c0.059-0.985,0.247-1.964,0.542-2.92      c2.616-8.353,14.078-14.521,22.782-11.661c2.103,0.708,3.819,2.302,5.198,3.951C239.51,93.141,240.414,94.443,241.223,95.854z"/>
			</g>
		</g>
		<g>
			<path style="fill:#AF312F;" d="M359.529,56.485c-18.436,18.399-29.905,5.901-21.615,1.03c5.553-3.268,10.161-8.019,13.178-11.209     C354.517,49.247,357.333,52.639,359.529,56.485z"/>
		</g>
		<g>
			<path style="fill:#AF312F;" d="M361.586,60.386c-3.732,3.076-8.634,6.572-13.107,8.369c-3.934,1.573-8.489,3.241-11.25,6.301     c-0.936,1.029-1.595,2.269-1.669,3.52c-0.165,3.129,3.165,5.226,6.456,5.662c8.721,1.155,18.153-3.277,25.324-8.558     C367.338,75.68,365.738,68.064,361.586,60.386z"/>
		</g>
		<g>
			<path style="fill:#AF312F;" d="M368.549,81.573c0.876,5.594,0.894,11.116-0.029,16.522c-5.253,2.463-11.58,2.9-17.199,1.489     c-2.504-0.634-4.997-2.088-5.262-4.831c-0.359-3.628,4.214-5.329,7.076-6.082C360.898,86.632,365.958,83.506,368.549,81.573z"/>
		</g>
		<g>
			<path style="fill:#FFFFFF;" d="M314.554,29.281c0,0-2.569,0.559-3.422,0.182c-0.866-0.373,2.985-1.577,2.985-1.577     c-2.188-0.256-4.466-2.019-3.816-2.247c0.659-0.245,3.433,0.754,3.433,0.754c-3.401-2.685-3.316-8.237-0.605-8.656     c1.16-0.182,3.125,1.893,4.987,4.315c1.047,9.524,8.665,14.563,9.939,15.108c-5.274-2.478-11.089-3.612-15.697-4.097     C312.436,31.051,314.554,29.281,314.554,29.281z"/>
		</g>
		<g>
			<path style="fill:#FFFFFF;" d="M216.663,53.257c-0.276-2.146,1.031-5.603,1.15-5.9c-0.149,0.112-1.705,1.375-2.678,1.157     c-1.021-0.232,1.603-2.243,1.603-2.243s-2.241,0.837-2.633,0.218c-0.401-0.603,1.99-1.097,1.99-1.097     c-1.954-0.502-6.309-4.018-4.62-5.761c1.102-1.132,3.313-0.261,4.736,0.49c2.794,3.771,6.025,6.546,12.317,6.852     C228.528,46.973,221.975,50.349,216.663,53.257z"/>
		</g>
		<g>
			<g>
				<path style="fill:#AF312F;" d="M262.252,100.15c0,0-4.422-3.454-6.023-2.319c-1.602,1.135,5.059,6.372,7.187,6.548      c2.128,0.176,4.966-7.454,3.595-8.522C265.639,94.789,262.252,100.15,262.252,100.15z"/>
			</g>
			<g style="opacity:0.48;">
				<path style="fill:#AF312F;" d="M254.714,106.823c-3.158,1.441-5.893,4.113-7.086,7.642c-1.729,5.115-0.956,10.926,3.531,14.321      c2.785,2.107,6.199,2.861,9.503,3.065c6.332,0.39,12.645,0.341,18.374-2.576c2.078-1.058,4.049-2.442,5.496-4.377      c2.217-2.965,3.025-7.17,2.117-11.023c-0.908-3.853-3.509-7.265-6.82-8.943c-4.072-2.064-9.413-1.886-13.607-0.971      C262.486,104.775,258.186,105.238,254.714,106.823z"/>
			</g>
			<g>
				<path style="fill:#AF312F;" d="M275.019,126.32c-1.116-1.808-2.157-3.657-3.229-5.489l-3.078-5.574      c-1.026-1.859-1.989-3.75-2.961-5.64c-0.943-1.91-1.892-3.799-2.708-5.814l1.111-0.181c-0.161,4.058-0.214,8.134-0.237,12.201      c-0.003,2.035,0.016,4.07,0.098,6.103c0.048,2.036,0.177,4.066,0.364,6.101c-0.441-1.997-0.682-4.032-0.918-6.064      c-0.203-2.037-0.314-4.079-0.418-6.122c-0.191-4.088-0.169-8.174-0.037-12.268l0.088-2.73l1.023,2.548      c0.77,1.919,1.703,3.837,2.618,5.738l2.773,5.717l2.789,5.716C273.195,122.487,274.137,124.388,275.019,126.32z"/>
			</g>
		</g>
		<g>
			<g>
				<path style="fill:#AF312F;" d="M202.346,141.666c3.07-2.185,6.306-4.063,9.584-5.866c3.294-1.772,6.63-3.468,10.134-4.854      c-3.068,2.187-6.305,4.065-9.584,5.866C209.185,138.583,205.849,140.278,202.346,141.666z"/>
			</g>
			<g>
				<path style="fill:#AF312F;" d="M197.54,133.089c3.398-1.368,6.885-2.399,10.394-3.347c3.518-0.915,7.058-1.744,10.688-2.233      c-3.397,1.371-6.884,2.401-10.394,3.347C204.71,131.768,201.17,132.597,197.54,133.089z"/>
			</g>
			<g>
				<path style="fill:#AF312F;" d="M196.971,121.692c3.676,0.228,7.288,0.799,10.885,1.455c3.59,0.69,7.163,1.466,10.672,2.588      c-3.677-0.226-7.289-0.797-10.884-1.455C204.053,123.588,200.48,122.811,196.971,121.692z"/>
			</g>
			<g>
				<path style="fill:#AF312F;" d="M325.772,116.263c3.742-0.694,7.505-1.04,11.275-1.3c3.772-0.226,7.549-0.363,11.348-0.15      c-3.741,0.697-7.505,1.042-11.275,1.3C333.349,116.336,329.572,116.474,325.772,116.263z"/>
			</g>
			<g>
				<path style="fill:#AF312F;" d="M347.399,105.668c-3.334,1.51-6.771,2.686-10.233,3.78c-3.473,1.061-6.971,2.039-10.574,2.679      c3.332-1.512,6.769-2.688,10.232-3.78C340.298,107.289,343.797,106.312,347.399,105.668z"/>
			</g>
			<g>
				<path style="fill:#AF312F;" d="M341.321,95.854c-2.301,2.787-4.841,5.32-7.44,7.79c-2.623,2.446-5.306,4.827-8.23,6.952      c2.299-2.789,4.84-5.322,7.44-7.791C335.716,100.362,338.399,97.981,341.321,95.854z"/>
			</g>
		</g>
		<g style="opacity:0.48;">
			<path style="fill:#AF312F;" d="M209.039,147.923c1.456,1.333,2.909,2.663,4.42,3.916c0.745,0.637,1.507,1.251,2.289,1.829     c0.777,0.567,1.604,1.121,2.424,1.433l0.228,0.087l0.067,0.261c0.202,0.788,0.462,1.603,0.816,2.322     c0.331,0.706,0.889,1.404,1.324,1.371c0.213-0.015,0.281-0.042,0.393-0.342c0.088-0.29,0.098-0.686,0.075-1.074     c-0.052-0.787-0.245-1.622-0.464-2.398l-0.638-2.272l1.607,1.712c0.617,0.657,1.297,1.3,1.996,1.882     c0.702,0.577,1.443,1.126,2.213,1.476c0.38,0.182,0.781,0.284,1.087,0.246c0.142,0.003,0.337-0.075,0.426-0.143     c0.123-0.063,0.145-0.149,0.19-0.264c0.107-0.578-0.396-1.523-0.891-2.193l-0.761-1.03l1.192,0.379     c1.494,0.475,3.045,0.836,4.594,1.154c1.553,0.317,3.128,0.517,4.727,0.534c-1.589,0.216-3.207,0.125-4.804-0.032     c-1.601-0.178-3.172-0.485-4.748-0.873l0.431-0.65c0.328,0.396,0.604,0.793,0.847,1.249c0.222,0.457,0.461,0.966,0.373,1.647     c-0.065,0.332-0.268,0.702-0.557,0.884c-0.139,0.117-0.281,0.177-0.424,0.232c-0.14,0.069-0.293,0.099-0.451,0.117     c-0.629,0.088-1.176-0.079-1.647-0.277c-0.962-0.399-1.753-0.98-2.506-1.59c-0.754-0.615-1.451-1.26-2.129-1.968l0.969-0.56     c0.261,0.877,0.437,1.738,0.499,2.672c0.018,0.469,0.023,0.95-0.141,1.487c-0.092,0.266-0.239,0.566-0.521,0.794     c-0.286,0.234-0.651,0.326-0.968,0.308c-0.666-0.018-1.167-0.433-1.486-0.808c-0.326-0.391-0.545-0.808-0.743-1.225     c-0.374-0.844-0.633-1.684-0.806-2.578l0.295,0.347c-1.001-0.454-1.785-1.075-2.562-1.707c-0.768-0.64-1.502-1.308-2.217-1.994     C211.655,150.883,210.298,149.446,209.039,147.923z"/>
		</g>
		<g style="opacity:0.48;">
			<path style="fill:#AF312F;" d="M337.084,141.933c1.221-1.39,2.456-2.76,3.638-4.176c1.19-1.406,2.38-2.813,3.442-4.296     l0.646-0.901l0.106,1.135c0.047,0.499,0.143,1.031,0.301,1.498c0.144,0.464,0.425,0.904,0.647,0.96     c0.09,0.036,0.268,0.013,0.394-0.058c0.081-0.041,0.201-0.185,0.287-0.384c0.179-0.4,0.271-0.917,0.327-1.428     c0.102-1.034,0.1-2.111,0.033-3.18c-0.07-1.058-0.181-2.166-0.404-3.142l-0.422-1.85l1.378,1.294     c0.593,0.556,1.271,1.096,1.963,1.507c0.682,0.408,1.491,0.691,1.862,0.387c0.456-0.277,0.655-1.134,0.674-1.926     c0.021-0.81-0.07-1.671-0.22-2.479l-0.064-0.348l0.289-0.153c1.734-0.92,3.401-2.089,4.911-3.395     c0.773-0.639,1.498-1.336,2.183-2.074c0.691-0.733,1.302-1.536,1.9-2.357c-0.951,1.795-2.249,3.407-3.696,4.852     c-1.479,1.424-3.085,2.687-4.876,3.764l0.224-0.501c0.228,0.893,0.363,1.775,0.361,2.71c-0.003,0.465-0.039,0.942-0.174,1.431     c-0.129,0.478-0.388,1.017-0.895,1.376c-0.24,0.172-0.552,0.299-0.86,0.324c-0.303,0.03-0.58-0.009-0.834-0.069     c-0.509-0.125-0.938-0.34-1.347-0.569c-0.812-0.475-1.512-1.023-2.196-1.651l0.956-0.556c0.263,1.158,0.343,2.241,0.414,3.363     c0.052,1.115,0.069,2.235-0.084,3.376c-0.083,0.571-0.185,1.147-0.466,1.743c-0.145,0.289-0.351,0.625-0.76,0.839     c-0.358,0.175-0.764,0.237-1.195,0.088c-0.83-0.373-1.016-1.08-1.193-1.623c-0.158-0.582-0.228-1.138-0.253-1.73l0.752,0.233     c-1.176,1.456-2.425,2.825-3.724,4.146C339.794,139.415,338.475,140.712,337.084,141.933z"/>
		</g>
		<g style="opacity:0.48;">
			<g>
				<path style="fill:#AF312F;" d="M314.057,288.112c4.288-3.019,8.462-6.184,12.411-9.6c3.957-3.396,7.763-6.977,11.044-10.963      l1.594-1.937l0.008,2.57c0.005,1.604,0.161,3.357,0.682,4.732c0.246,0.695,0.65,1.181,0.92,1.205      c0.093,0.031-0.007-0.024-0.136,0.009c-0.08-0.009-0.164,0.064-0.155,0.045c-0.024,0.029,0.071-0.079,0.139-0.187      c0.155-0.246,0.307-0.603,0.441-0.963c0.528-1.491,0.858-3.185,1.15-4.849c0.285-1.673,0.516-3.383,0.694-5.064l0.63-5.918      l1.687,5.74c0.506,1.722,1.165,3.495,1.984,5.061c0.754,1.539,2.095,3.079,2.72,2.743c0.263-0.013,0.55-0.367,0.712-1.165      c0.15-0.745,0.146-1.636,0.08-2.517c-0.141-1.771-0.519-3.625-0.998-5.361l-0.171-0.622l0.435-0.493      c4.13-4.681,7.568-10.234,10.503-15.886c2.98-5.671,5.412-11.636,7.384-17.752c3.882-12.261,5.869-25.119,6.261-38.056      c0.206,6.472-0.116,12.965-0.87,19.415c-0.716,6.459-2.08,12.844-3.866,19.106c-1.833,6.249-4.131,12.381-7.026,18.244      c-2.979,5.835-6.332,11.427-10.726,16.5l0.264-1.115c0.558,1.919,0.977,3.803,1.174,5.823c0.085,1.01,0.13,2.04-0.071,3.169      c-0.108,0.562-0.27,1.162-0.658,1.771c-0.368,0.608-1.1,1.177-1.865,1.336c-0.703,0.178-1.551,0.096-2.2-0.222      c-0.644-0.305-1.117-0.715-1.505-1.137c-0.767-0.851-1.293-1.75-1.755-2.654c-0.91-1.822-1.552-3.644-2.09-5.577l2.316-0.178      c-0.216,1.758-0.477,3.477-0.8,5.211c-0.339,1.735-0.685,3.453-1.339,5.22c-0.178,0.446-0.362,0.892-0.674,1.376      c-0.176,0.245-0.336,0.501-0.72,0.774c-0.155,0.128-0.455,0.257-0.738,0.313c-0.346,0.041-0.663-0.016-0.776-0.061      c-1.464-0.451-2.018-1.692-2.335-2.576c-0.582-1.918-0.601-3.687-0.521-5.529l1.602,0.634c-3.565,3.96-7.53,7.473-11.714,10.671      C322.966,282.549,318.629,285.531,314.057,288.112z"/>
			</g>
		</g>
		<g>
			<path style="fill:#AF312F;" d="M273.413,289.645c-0.272-1.993,0.008-4.02,0.581-5.955c0.57-1.946,1.543-3.786,2.811-5.423     c1.278-1.629,2.953-2.978,4.825-3.848c1.838-0.955,3.937-1.238,5.907-1.162c-1.78,0.951-3.475,1.701-4.916,2.844     c-1.45,1.086-2.784,2.284-3.863,3.727C276.497,282.636,274.919,285.982,273.413,289.645z"/>
		</g>
		<g>
			<path style="fill:#AF312F;" d="M252.733,291.458c-0.298-2.135-0.086-4.296,0.377-6.395c0.459-2.108,1.269-4.146,2.346-6.06     c1.147-1.874,2.616-3.592,4.407-4.901c1.786-1.324,3.942-2.081,6.059-2.282c-1.801,1.2-3.425,2.329-4.791,3.765     c-1.335,1.445-2.525,2.987-3.524,4.689C255.61,283.691,254.192,287.456,252.733,291.458z"/>
		</g>
		<g style="opacity:0.48;">
			<g>
				<path style="fill:#AF312F;" d="M314.057,294.773c-14.727-1.137-29.857-0.302-43.639,4.801      c-6.841,2.573-13.201,6.44-18.224,11.646c-5.058,5.175-8.538,11.752-10.339,18.76c-3.436,14.144-3.186,29.297,1.076,43.287      c4.116,13.999,12.505,26.93,24.584,35.635c-6.351-3.845-11.927-9.031-16.4-15.038c-4.448-6.03-7.911-12.806-10.227-19.957      c-4.53-14.321-5.159-29.935-1.276-44.525c1.941-7.319,5.679-14.253,11.051-19.656c5.346-5.443,12.128-9.215,19.189-11.7      c7.094-2.471,14.526-3.783,21.962-4.183C299.252,293.43,306.71,293.753,314.057,294.773z"/>
			</g>
		</g>
		<g style="opacity:0.48;">
			<g>
				<path style="fill:#AF312F;" d="M256.812,208.391c-0.978-0.532-1.961-1.044-2.961-1.444c-0.499-0.194-1.011-0.366-1.497-0.434      c-0.481-0.081-0.943-0.008-1.014,0.13c-0.228,0.027,0.306,1.139,0.967,1.85c0.65,0.777,1.458,1.517,2.226,2.185l4.071,3.54      l-5.188-1.747c-0.942-0.317-2.021-0.593-2.931-0.634c-0.442-0.026-0.882,0.043-0.948,0.103c-0.04,0.016,0.039-0.01,0.031-0.054      c0.066-0.112,0.003-0.181,0.05-0.096c0.193,0.427,1.181,1.156,1.995,1.687c0.872,0.557,1.839,1.081,2.776,1.524l1.46,0.69      l-1.059,1.222c-0.822,0.95-1.67,2.185-2.338,3.412c-0.683,1.245-1.32,2.535-1.823,3.886c-0.519,1.346-0.962,2.731-1.329,4.152      c-0.396,1.418-0.606,2.877-0.882,4.355c-0.174-1.488-0.2-2.998-0.108-4.51c0.039-1.523,0.356-3.018,0.68-4.515      c0.394-1.479,0.883-2.946,1.541-4.349c0.686-1.41,1.384-2.734,2.479-4.054l0.401,1.912c-1.089-0.487-2.096-1.007-3.116-1.626      c-0.506-0.319-1.01-0.641-1.496-1.066c-0.481-0.427-0.987-0.84-1.404-1.689c-0.205-0.417-0.334-1.056-0.132-1.714      c0.199-0.557,0.634-1.048,1.101-1.278c0.932-0.459,1.66-0.393,2.316-0.339c1.312,0.162,2.392,0.531,3.533,0.991l-1.117,1.792      c-0.846-0.836-1.569-1.702-2.249-2.688c-0.328-0.504-0.657-1.009-0.872-1.661c-0.106-0.328-0.188-0.695-0.172-1.128      c0.034-0.452,0.27-0.965,0.673-1.233c0.837-0.548,1.607-0.298,2.161-0.112c0.584,0.212,1.081,0.508,1.564,0.816      C255.162,206.881,256.026,207.596,256.812,208.391z"/>
			</g>
		</g>
		<g style="opacity:0.48;">
			<g>
				<path style="fill:#AF312F;" d="M320.394,292.795c3.559-0.037,7.071,0.761,10.465,1.775c3.405,1.026,6.683,2.445,9.837,4.093      c3.143,1.67,6.138,3.628,8.88,5.893c2.805,2.184,5.222,4.835,7.411,7.594c-2.876-2.07-5.645-4.156-8.564-6.02      c-2.897-1.884-5.838-3.681-8.9-5.26c-3.029-1.638-6.15-3.105-9.328-4.472C326.993,295.105,323.789,293.712,320.394,292.795z"/>
			</g>
		</g>
		<g>
			<path style="fill:#AF312F;" d="M393.812,154.23c-8.488,4.693-18.425,7.469-27.061,8.18c-2.87,0.228-5.927,0.134-8.341-1.435     c-5.833-3.835-1.166-10.526,2.843-13.503c2.923-2.172,6.316-3.58,9.521-5.297c3.138-1.676,6.128-3.634,8.891-5.873     c1.622,1.676,3.191,3.42,4.707,5.23C387.724,145.487,390.875,149.738,393.812,154.23z"/>
		</g>
		<g>
			<path style="fill:#AF312F;" d="M410.99,188.411c-4.063,0.456-8.166,0.576-12.149-0.268c-1.488-0.322-3.004-0.778-4.197-1.716     c-1.22-0.939-2.105-2.4-1.998-3.929c0.067-1.22,0.737-2.306,1.515-3.245c2.387-2.923,6.021-5.122,9.91-6.866     C406.578,177.536,408.898,182.887,410.99,188.411z"/>
		</g>
		<g>
			<path style="fill:#AF312F;" d="M422.951,230.357c-8.328,1.877-17.111,1.676-25.277-0.751c-1.797-0.536-3.621-1.207-4.988-2.481     c-1.354-1.301-2.159-3.352-1.475-5.096c0.684-1.757,2.548-2.695,4.291-3.379c7.509-2.937,15.569-3.983,23.185-6.531     c0.536,1.998,1.046,3.996,1.542,6.007C421.235,222.177,422.133,226.253,422.951,230.357z"/>
		</g>
		<g>
			<path style="fill:#AF312F;" d="M427.671,263.411c-4.921-0.08-9.762-1.247-13.477-3.54c-1.14-0.684-2.199-1.555-2.843-2.709     c-0.536-0.966-0.71-1.864-0.59-2.736c0.59-4.05,7.684-7.161,14.737-9.4c0.376,2.467,0.711,4.948,1.006,7.415     C426.974,256.103,427.349,259.764,427.671,263.411z"/>
		</g>
		<g>
			<path style="fill:#AF312F;" d="M403.373,379.927c-0.697,0.711-1.395,1.408-2.105,2.092c-4.21,4.023-8.703,7.456-13.356,10.366     c-0.845,0.536-1.703,1.046-2.561,1.542c-4.237-6.128-6.839-13.624-6.463-20.249c0.094-1.555,0.402-3.138,1.234-4.452     c0.684-1.073,1.515-1.77,2.481-2.105C387.818,365.217,396.588,372.954,403.373,379.927z"/>
		</g>
		<g>
			<path style="fill:#AF312F;" d="M363.131,403.34c-1.81,0.523-3.621,1.006-5.404,1.435c-4.599,1.1-9.105,1.891-13.396,2.44     c-1.904-3.916-3.366-7.952-3.567-12.444c-0.309-6.49,6.664-5.927,10.781-3.54c3.567,2.065,6.249,5.565,8.676,8.823     C360.999,401.087,362.018,402.187,363.131,403.34z"/>
		</g>
		<g>
			<path style="fill:#AF312F;" d="M423.005,342.903c-1.73,6.772-3.835,12.887-6.303,18.157     c-13.315-3.916-25.706-11.734-33.041-23.44c-2.373-3.795-4.063-9.038-1.18-12.471c2.588-3.084,7.509-2.803,11.197-1.18     c5.216,2.293,9.253,6.544,13.718,10.084c4.398,3.486,9.306,6.329,14.509,8.448C422.267,342.649,422.642,342.783,423.005,342.903z     "/>
		</g>
		<g>
			<path style="fill:#AF312F;" d="M428.65,300.811c-0.108,2.87-0.255,5.686-0.456,8.462c-0.456,6.235-1.126,12.243-2.011,17.942     c0,0.013,0,0.013,0,0.027c-7.603-2.883-14.563-7.362-20.718-12.672c-6.222-5.324-8.985-14.858,0.898-18.237     c7.013-2.387,13.892,1.14,20.249,3.782C427.242,300.382,427.926,300.609,428.65,300.811z"/>
		</g>
		<g>
			<polygon style="fill:#FF5555;" points="266.775,168.246 272.257,174.84 280.409,174.18 286.593,163.116 273.413,155.84      263.736,163.116 268.09,167.8    "/>
		</g>
		<g>
			<path style="fill:#FFFFFF;" d="M273.413,155.84l-4.452,15.398l-30.699-15.398C238.263,155.84,259.948,156.906,273.413,155.84z"/>
		</g>
		<g>
			<path style="fill:#FFFFFF;" d="M273.413,155.84l10.158,15.398c0,0,28.873-11.987,42.202-29.571     C325.772,141.666,298.186,153.194,273.413,155.84z"/>
		</g>
		<g>
			<path style="fill:#FF5555;" d="M280.409,174.18c0,0,3.299,25.506,13.548,73.576l-6.75,6.664c0,0-10.701-0.629-21.285,3.899     c0,0,6.379-63.212,6.336-83.48L280.409,174.18z"/>
		</g>
		<g style="opacity:0.48;">
			<g>
				<path style="fill:#AF312F;" d="M244.701,284.327c0.309-4.733,2.014-9.357,4.544-13.437c2.572-4.075,6.068-7.555,10.065-10.303      l3.125-1.861c1.048-0.609,2.192-1.019,3.286-1.537c2.171-1.113,4.546-1.619,6.84-2.372c2.33-0.61,4.716-0.956,7.074-1.436      l7.169-0.588l-0.746,0.297c5.049-4.538,9.735-9.658,13.947-15.069c2.123-2.71,3.963-5.613,5.772-8.544      c1.786-2.952,3.229-6.086,4.555-9.302c-1.733,6.747-4.978,13.087-8.939,18.849c-1.985,2.883-4.089,5.694-6.401,8.328      c-2.309,2.648-4.688,5.188-7.341,7.574l-0.283,0.254l-0.464,0.043l-6.933,0.635c-2.263,0.454-4.569,0.755-6.803,1.319      c-4.435,1.224-8.814,2.76-12.719,5.196c-3.904,2.394-7.412,5.491-10.096,9.263C247.623,275.364,245.61,279.687,244.701,284.327z      "/>
			</g>
		</g>
		<g>
			<g>
				<path style="fill:#AF312F;" d="M347.551,291.89c0.114,1.434-0.956,2.708-2.412,2.799l-100.76,7.805      c-1.434,0.114-2.685-0.956-2.799-2.412l-0.182-2.116l-0.205-2.571c-0.114-1.365,0.887-2.571,2.23-2.776      c0.068,0,0.114-0.023,0.182-0.023c0,0,102.786-5.666,103.605-2.958c0.137,0.478,0.228,0.956,0.273,1.456L347.551,291.89z"/>
			</g>
			<g>
				<path style="fill:#FF5555;" d="M347.209,289.637l-105.812,8.329h-0.068l-0.387-5.143l2.48-0.205l97.574-7.669      C343.887,284.995,346.39,286.929,347.209,289.637z"/>
			</g>
			<g>
				<path style="fill:#AF312F;" d="M252.733,301.74l-34.629-87.212c-3.25-8.185-11.455-13.296-20.234-12.605l-5.516,0.346      c-7.349,0.578-41.008,53.141-41.008,53.141l96.141,46.809L252.733,301.74z"/>
			</g>
			<g>
				<path style="fill:#FF5555;" d="M247.487,302.219l-34.899-87.344c-3.25-8.185-11.455-13.296-20.234-12.605L53.926,213.168      c-7.349,0.579-12.087,8.046-9.482,14.941l32.344,85.599L247.487,302.219z"/>
			</g>
		</g>
		<g>
			<g>
				<path style="fill:#FFFFFF;" d="M135.752,242.387c-9.459,1.392-15.999,10.189-14.607,19.648      c1.392,9.459,10.189,15.999,19.648,14.607c9.472-1.394,16.012-10.19,14.62-19.65      C154.02,247.533,145.224,240.993,135.752,242.387z M131.055,263.046c-2.101,0.309-4.047-1.138-4.356-3.238      c-0.309-2.101,1.138-4.047,3.238-4.356c2.101-0.309,4.047,1.138,4.356,3.239C134.603,260.79,133.156,262.737,131.055,263.046z"/>
			</g>
			<g>
				<polygon style="fill:#FFFFFF;" points="153.497,257.272 164.05,243.115 167.275,265.036     "/>
			</g>
		</g>
	</g>
	<g>
		<path style="fill:#AF312F;" d="M262.352,465.125c-0.486-1.322-0.626-2.684-0.622-4.034c-0.001-1.356,0.191-2.703,0.537-4.026    c0.393-1.308,0.886-2.61,1.684-3.768c0.78-1.152,1.808-2.203,3.099-2.769c-1.08,2.544-1.715,4.762-2.373,7.196    C263.99,460.125,263.424,462.564,262.352,465.125z"/>
	</g>
</g>















</svg>
