<?xml version="1.0" encoding="UTF-8"?>
<svg width="312px" height="304px" viewBox="0 0 312 304" version="1.1" xmlns="http://www.w3.org/2000/svg" xmlns:xlink="http://www.w3.org/1999/xlink">
    <title>Chart, analytic, graph@2x</title>
    <defs>
        <linearGradient x1="50%" y1="0%" x2="50%" y2="100%" id="linearGradient-1">
            <stop stop-color="#9D61F7" offset="0%"></stop>
            <stop stop-color="#00DEFC" offset="100%"></stop>
        </linearGradient>
        <linearGradient x1="50%" y1="0%" x2="50%" y2="100%" id="linearGradient-2">
            <stop stop-color="#966AFF" offset="0%"></stop>
            <stop stop-color="#E885E0" offset="100%"></stop>
        </linearGradient>
        <linearGradient x1="48.6360029%" y1="-17.0792469%" x2="50.7362215%" y2="89.6288471%" id="linearGradient-3">
            <stop stop-color="#FFFFFF" offset="0%"></stop>
            <stop stop-color="#20BDFF" offset="51.0302085%"></stop>
            <stop stop-color="#3390FF" offset="100%"></stop>
        </linearGradient>
        <linearGradient x1="50%" y1="0%" x2="50%" y2="100%" id="linearGradient-4">
            <stop stop-color="#FFB36D" offset="0%"></stop>
            <stop stop-color="#E73E79" offset="100%"></stop>
        </linearGradient>
        <linearGradient x1="50%" y1="-30.9601329%" x2="50%" y2="127.882425%" id="linearGradient-5">
            <stop stop-color="#FFF2F2" stop-opacity="0.139407835" offset="0%"></stop>
            <stop stop-color="#FEFAF9" offset="100%"></stop>
        </linearGradient>
        <linearGradient x1="243.043721%" y1="49.1534439%" x2="55.645527%" y2="50.4682047%" id="linearGradient-6">
            <stop stop-color="#FFFFFF" offset="0%"></stop>
            <stop stop-color="#20BDFF" offset="51.0302085%"></stop>
            <stop stop-color="#3390FF" offset="100%"></stop>
        </linearGradient>
        <linearGradient x1="78.2129257%" y1="25.4488785%" x2="43.177023%" y2="74.5511215%" id="linearGradient-7">
            <stop stop-color="#17B7BD" offset="0%"></stop>
            <stop stop-color="#9DEB93" offset="100%"></stop>
        </linearGradient>
        <linearGradient x1="50%" y1="0%" x2="50%" y2="100%" id="linearGradient-8">
            <stop stop-color="#FB65BC" offset="0%"></stop>
            <stop stop-color="#FCAFA9" offset="100%"></stop>
        </linearGradient>
    </defs>
    <g id="Page-1" stroke="none" stroke-width="1" fill="none" fill-rule="evenodd">
        <g id="Business---Icon-Illustration" transform="translate(-1025.000000, -114.000000)">
            <g id="Chart,-analytic,-graph" transform="translate(1025.000000, 114.000000)">
                <ellipse id="Shape" fill="#B6A0D1" fill-rule="nonzero" opacity="0.200000003" cx="156.5" cy="294" rx="132.5" ry="10"></ellipse>
                <path d="M192,68 L248.519956,68 L276,115.831718 C268.554517,119.154 260.312092,121 251.640628,121 C220.943168,121 195.622422,97.8659479 192,68 Z M192,58 C193.127818,27.1986725 217.397814,2.2821583 248,0 L248,58 L192,58 Z" id="Shape" fill="url(#linearGradient-1)"></path>
                <path d="M284.718427,111 L257,62.6105445 L257,0 C287.799323,2.5713363 312,28.5810045 312,60.2877509 C312,81.5246175 301.14312,100.205667 284.718427,111 L284.718427,111 Z" id="Shape" fill="url(#linearGradient-2)"></path>
                <path d="M162.170708,219.320508 L162.170708,249 C162.170708,251.761424 159.932132,254 157.170708,254 C154.409284,254 152.170708,251.761424 152.170708,249 L152.170708,217 L133.330962,249.631397 C131.95025,252.02286 128.892298,252.842236 126.500835,251.461524 C124.109372,250.080812 123.289996,247.02286 124.670708,244.631397 L149.670708,201.330127 C150.259567,200.310192 151.153506,199.57621 152.170708,199.176898 L152.170708,79 C152.170708,76.2385763 154.409284,74 157.170708,74 C159.932132,74 162.170708,76.2385763 162.170708,79 L162.170708,199.961608 C162.624592,200.333394 163.020247,200.791953 163.330962,201.330127 L188.330962,244.631397 C189.711674,247.02286 188.892298,250.080812 186.500835,251.461524 C184.109372,252.842236 181.05142,252.02286 179.670708,249.631397 L162.170708,219.320508 L162.170708,219.320508 Z" id="Shape" fill="url(#linearGradient-3)" fill-rule="nonzero"></path>
                <path d="M74,84 L240,84 C244.418278,84 248,87.581722 248,92 L248,196 C248,200.418278 244.418278,204 240,204 L74,204 C69.581722,204 66,200.418278 66,196 L66,92 C66,87.581722 69.581722,84 74,84 Z" id="Shape" fill="url(#linearGradient-4)"></path>
                <path d="M78,110 L236,110 C240.418278,110 244,113.581722 244,118 L244,192 C244,196.418278 240.418278,200 236,200 L78,200 C73.581722,200 70,196.418278 70,192 L70,118 C70,113.581722 73.581722,110 78,110 Z" id="Shape" fill="url(#linearGradient-5)" opacity="0.965587798"></path>
                <path d="M137,95 L177.526316,95 C178.630885,95 179.526316,95.8954305 179.526316,97 L179.526316,98.3055556 C179.526316,99.4101251 178.630885,100.305556 177.526316,100.305556 L137,100.305556 C135.895431,100.305556 135,99.4101251 135,98.3055556 L135,97 C135,95.8954305 135.895431,95 137,95 Z" id="Shape" fill="#FFFFFF" fill-rule="nonzero"></path>
                <path d="M226.900616,126.620453 L224.021398,127.427279 C223.223699,127.650813 222.395826,127.185361 222.172292,126.387661 C221.948757,125.589962 222.41421,124.762089 223.211909,124.538555 L229.173449,122.867988 C229.956752,122.648488 230.772256,123.093351 231.011727,123.870781 L232.935666,130.116762 C233.179538,130.908481 232.73542,131.747992 231.943702,131.991864 C231.151983,132.235736 230.312471,131.791618 230.0686,130.9999 L229.295747,128.490867 C223.44469,139.040319 216.524694,144.587616 208.520142,144.914763 C204.278777,145.088108 201.376403,143.0608 197.396517,138.304316 C196.969354,137.793801 195.519855,136.022794 195.394241,135.870784 C195.132922,135.554549 194.875427,135.248339 194.621247,134.952042 C195.683161,134.786457 196.606735,134.203125 197.218628,133.375395 C197.380406,133.566861 197.543108,133.761654 197.70683,133.959781 C197.841667,134.122953 199.282675,135.883585 199.697334,136.379156 C203.12778,140.478987 205.364356,142.041236 208.397634,141.917265 C215.285657,141.635751 221.458727,136.612317 226.900616,126.620453 Z M140.04696,160.385166 C140.016041,160.585589 140,160.790921 140,161 C140,161.904111 140.299957,162.738163 140.805784,163.408069 C136.996783,163.331708 133.929792,162.867276 129.570223,161.891384 C129.165667,161.800824 127.708906,161.470582 127.78022,161.486691 C121.197531,159.999767 116.946659,159.470626 109.818742,159.659376 C99.4849253,159.933021 89.0055943,172.521976 78.7307638,197.693799 C78.4176875,198.460789 77.5421202,198.82876 76.7751295,198.515684 C76.0081388,198.202607 75.6401684,197.32704 75.9532446,196.560049 C86.6453797,170.365892 97.7907359,156.976832 109.739328,156.660428 C117.14682,156.464274 121.634544,157.022898 128.441218,158.560416 C128.373538,158.545128 129.825679,158.874323 130.225557,158.963836 C134.078893,159.826408 136.829144,160.265575 140.04696,160.385166 L140.04696,160.385166 Z M147.219992,158.626451 C149.321853,157.076328 151.583587,154.493767 154.225347,150.77812 C154.969131,149.731987 155.744339,148.600158 156.705593,147.165161 C157.185421,146.448856 158.902501,143.86481 159.239873,143.359897 C167.269103,131.343319 172.32904,126.145339 179.481761,125.113752 C184.389654,124.40592 188.028883,125.278742 191.545198,127.841612 C190.737093,128.470601 190.176733,129.402919 190.035127,130.467556 C187.019103,128.205454 184.014395,127.491081 179.909999,128.08303 C173.948905,128.942757 169.268533,133.750817 161.734281,145.026609 C161.400143,145.526681 159.681751,148.112702 159.198058,148.834777 C158.222612,150.29096 157.432799,151.444112 156.670362,152.516483 C153.46601,157.023417 150.698593,160.090836 147.920755,161.796199 C147.972725,161.538889 148,161.27263 148,161 C148,160.111354 147.710216,159.29039 147.219992,158.626451 L147.219992,158.626451 Z" id="Shape" fill="#FFFFFF" fill-rule="nonzero"></path>
                <path d="M144,163.5 C144.828427,163.5 145.5,164.171573 145.5,165 C145.5,165.828427 144.828427,166.5 144,166.5 C143.536496,166.5 143.079277,166.442326 142.636641,166.329337 C141.833953,166.124439 141.349348,165.307629 141.554246,164.50494 C141.759144,163.702252 142.575955,163.217648 143.378643,163.422546 C143.5793,163.473767 143.787269,163.5 144,163.5 Z M142.79067,163.18888 C143.515208,163.590548 143.776945,164.503518 143.375276,165.228055 C142.973608,165.952592 142.060638,166.214329 141.336101,165.812661 C140.933897,165.589688 140.561314,165.317095 140.227063,165.001883 C139.624364,164.433512 139.596535,163.484173 140.164906,162.881473 C140.733276,162.278774 141.682616,162.250945 142.285315,162.819316 C142.437886,162.963197 142.607743,163.087469 142.79067,163.18888 Z M141.880882,162.327396 C142.321714,163.028794 142.110484,163.954754 141.409086,164.395586 C140.707688,164.836418 139.781728,164.625188 139.340896,163.923791 C139.096163,163.534402 138.900848,163.115301 138.760311,162.675559 C138.508122,161.886451 138.94338,161.042312 139.732489,160.790122 C140.521597,160.537933 141.365736,160.973191 141.617925,161.7623 C141.681438,161.961031 141.769838,162.150718 141.880882,162.327396 Z M141.501365,161.083874 C141.528367,161.911861 140.87904,162.604967 140.051053,162.631969 C139.223067,162.658971 138.529961,162.009644 138.502959,161.181658 C138.500644,161.097721 138.500644,161.097721 138.500012,161.00991 C138.500012,160.596173 138.543797,160.195137 138.631,159.802804 C138.810745,158.994112 139.612032,158.484249 140.420724,158.663995 C141.229416,158.84374 141.739279,159.645027 141.559534,160.453719 C141.519961,160.63176 141.500012,160.814478 141.500012,161.006236 C141.500298,161.045198 141.500298,161.045198 141.501365,161.083874 Z M141.7739,159.860396 C141.395432,160.597318 140.491231,160.887903 139.754309,160.509436 C139.017387,160.130969 138.726801,159.226768 139.105269,158.489845 C139.315455,158.080587 139.576214,157.699525 139.88079,157.355468 C140.429904,156.735173 141.377897,156.67747 141.998192,157.226584 C142.618486,157.775698 142.676189,158.723691 142.127075,159.343986 C141.988141,159.50093 141.869385,159.674474 141.7739,159.860396 Z M142.606102,158.924163 C141.919017,159.386987 140.986832,159.205189 140.524008,158.518104 C140.061183,157.83102 140.242982,156.898834 140.930066,156.43601 C141.311513,156.179065 141.724142,155.970561 142.158896,155.816147 C142.939546,155.53888 143.797157,155.946953 144.074424,156.727603 C144.351691,157.508253 143.943618,158.365865 143.162968,158.643131 C142.966349,158.712965 142.779377,158.807444 142.606102,158.924163 Z M143.832869,158.505442 C143.006208,158.559519 142.29223,157.933217 142.238153,157.106557 C142.184076,156.279897 142.810378,155.565918 143.637038,155.511841 C143.748822,155.504528 143.861043,155.500595 143.98043,155.500046 C144.344563,155.499985 144.689603,155.531912 145.030774,155.59671 C145.844652,155.751288 146.37912,156.536377 146.224542,157.350254 C146.069964,158.164132 145.284875,158.6986 144.470998,158.544022 C144.31602,158.514588 144.158542,158.500016 143.987773,158.500029 C143.93584,158.500275 143.884195,158.502085 143.832869,158.505442 Z M145.06907,158.739075 C144.320535,158.384129 144.001467,157.489581 144.356413,156.741046 C144.711358,155.992511 145.605906,155.673443 146.354441,156.028388 C146.770409,156.225634 147.159606,156.474374 147.513139,156.768098 C148.15034,157.2975 148.237728,158.243219 147.708325,158.880419 C147.178923,159.51762 146.233204,159.605008 145.596003,159.075605 C145.434869,158.941731 145.25782,158.828577 145.06907,158.739075 Z M146.038032,159.55155 C145.557201,158.876944 145.714287,157.940277 146.388893,157.459447 C147.063499,156.978616 148.000166,157.135702 148.480997,157.810308 C148.747896,158.184767 148.967222,158.591612 149.133091,159.021811 C149.431117,159.794774 149.046105,160.662983 148.273142,160.961009 C147.500179,161.259035 146.631971,160.874023 146.333944,160.10106 C146.258872,159.906354 146.159388,159.721813 146.038032,159.55155 Z M146.487802,160.750355 C146.406662,159.925911 147.00923,159.19179 147.833674,159.11065 C148.658117,159.029511 149.392238,159.632078 149.473378,160.456522 C149.489838,160.623774 149.498696,160.792181 149.499903,160.971128 C149.500029,161.285341 149.478079,161.574259 149.432434,161.86319 C149.303162,162.681469 148.535021,163.24002 147.716742,163.110748 C146.898463,162.981476 146.339912,162.213335 146.469184,161.395056 C146.489931,161.263728 146.499967,161.131634 146.499938,160.982114 C146.499399,160.904173 146.495334,160.826883 146.487802,160.750355 Z M146.293451,161.997575 C146.624505,161.238171 147.508496,160.890924 148.2679,161.221978 C149.027304,161.553032 149.374551,162.437023 149.043497,163.196427 C148.859432,163.618653 148.623018,164.015554 148.340503,164.378171 C147.831359,165.031672 146.888849,165.148697 146.235347,164.639553 C145.581846,164.130409 145.464821,163.187899 145.973965,162.534398 C146.102609,162.36928 146.210025,162.188945 146.293451,161.997575 Z M145.469071,163.023177 C146.138779,162.535547 147.076986,162.683151 147.564616,163.352859 C148.052246,164.022567 147.904642,164.960774 147.234934,165.448404 C146.863201,165.719071 146.458624,165.942502 146.030222,166.112723 C145.260342,166.418627 144.388247,166.0425 144.082344,165.27262 C143.77644,164.502741 144.152567,163.630646 144.922447,163.324743 C145.116402,163.247677 145.299987,163.14629 145.469071,163.023177 Z M144.33166,163.478367 C145.152987,163.370139 145.90654,163.948221 146.014767,164.769548 C146.122994,165.590876 145.544912,166.344428 144.723585,166.452655 C144.501349,166.48194 144.27674,166.497717 144.050704,166.49977 C143.222311,166.507293 142.544667,165.841846 142.537144,165.013453 C142.529621,164.18506 143.195068,163.507417 144.023461,163.499894 C144.127449,163.498949 144.230272,163.491727 144.33166,163.478367 Z M194,133.5 C194.828427,133.5 195.5,134.171573 195.5,135 C195.5,135.828427 194.828427,136.5 194,136.5 C193.536496,136.5 193.079277,136.442326 192.636641,136.329337 C191.833953,136.124439 191.349348,135.307629 191.554246,134.50494 C191.759144,133.702252 192.575955,133.217648 193.378643,133.422546 C193.5793,133.473767 193.787269,133.5 194,133.5 Z M192.79067,133.18888 C193.515208,133.590548 193.776945,134.503518 193.375276,135.228055 C192.973608,135.952592 192.060638,136.214329 191.336101,135.812661 C190.933897,135.589688 190.561314,135.317095 190.227063,135.001883 C189.624364,134.433512 189.596535,133.484173 190.164906,132.881473 C190.733276,132.278774 191.682616,132.250945 192.285315,132.819316 C192.437886,132.963197 192.607743,133.087469 192.79067,133.18888 Z M191.880882,132.327396 C192.321714,133.028794 192.110484,133.954754 191.409086,134.395586 C190.707688,134.836418 189.781728,134.625188 189.340896,133.923791 C189.096163,133.534402 188.900848,133.115301 188.760311,132.675559 C188.508122,131.886451 188.94338,131.042312 189.732489,130.790122 C190.521597,130.537933 191.365736,130.973191 191.617925,131.7623 C191.681438,131.961031 191.769838,132.150718 191.880882,132.327396 Z M191.501365,131.083874 C191.528367,131.911861 190.87904,132.604967 190.051053,132.631969 C189.223067,132.658971 188.529961,132.009644 188.502959,131.181658 C188.500644,131.097721 188.500644,131.097721 188.500012,131.00991 C188.500012,130.596173 188.543797,130.195137 188.631,129.802804 C188.810745,128.994112 189.612032,128.484249 190.420724,128.663995 C191.229416,128.84374 191.739279,129.645027 191.559534,130.453719 C191.519961,130.63176 191.500012,130.814478 191.500012,131.006236 C191.500298,131.045198 191.500298,131.045198 191.501365,131.083874 Z M191.7739,129.860396 C191.395432,130.597318 190.491231,130.887903 189.754309,130.509436 C189.017387,130.130969 188.726801,129.226768 189.105269,128.489845 C189.315455,128.080587 189.576214,127.699525 189.88079,127.355468 C190.429904,126.735173 191.377897,126.67747 191.998192,127.226584 C192.618486,127.775698 192.676189,128.723691 192.127075,129.343986 C191.988141,129.50093 191.869385,129.674474 191.7739,129.860396 Z M192.606102,128.924163 C191.919017,129.386987 190.986832,129.205189 190.524008,128.518104 C190.061183,127.83102 190.242982,126.898834 190.930066,126.43601 C191.311513,126.179065 191.724142,125.970561 192.158896,125.816147 C192.939546,125.53888 193.797157,125.946953 194.074424,126.727603 C194.351691,127.508253 193.943618,128.365865 193.162968,128.643131 C192.966349,128.712965 192.779377,128.807444 192.606102,128.924163 Z M193.832869,128.505442 C193.006208,128.559519 192.29223,127.933217 192.238153,127.106557 C192.184076,126.279897 192.810378,125.565918 193.637038,125.511841 C193.748822,125.504528 193.861043,125.500595 193.98043,125.500046 C194.344563,125.499985 194.689603,125.531912 195.030774,125.59671 C195.844652,125.751288 196.37912,126.536377 196.224542,127.350254 C196.069964,128.164132 195.284875,128.6986 194.470998,128.544022 C194.31602,128.514588 194.158542,128.500016 193.987773,128.500029 C193.93584,128.500275 193.884195,128.502085 193.832869,128.505442 Z M195.06907,128.739075 C194.320535,128.384129 194.001467,127.489581 194.356413,126.741046 C194.711358,125.992511 195.605906,125.673443 196.354441,126.028388 C196.770409,126.225634 197.159606,126.474374 197.513139,126.768098 C198.15034,127.2975 198.237728,128.243219 197.708325,128.880419 C197.178923,129.51762 196.233204,129.605008 195.596003,129.075605 C195.434869,128.941731 195.25782,128.828577 195.06907,128.739075 Z M196.038032,129.55155 C195.557201,128.876944 195.714287,127.940277 196.388893,127.459447 C197.063499,126.978616 198.000166,127.135702 198.480997,127.810308 C198.747896,128.184767 198.967222,128.591612 199.133091,129.021811 C199.431117,129.794774 199.046105,130.662983 198.273142,130.961009 C197.500179,131.259035 196.631971,130.874023 196.333944,130.10106 C196.258872,129.906354 196.159388,129.721813 196.038032,129.55155 Z M196.487802,130.750355 C196.406662,129.925911 197.00923,129.19179 197.833674,129.11065 C198.658117,129.029511 199.392238,129.632078 199.473378,130.456522 C199.489838,130.623774 199.498696,130.792181 199.499903,130.971128 C199.500029,131.285341 199.478079,131.574259 199.432434,131.86319 C199.303162,132.681469 198.535021,133.24002 197.716742,133.110748 C196.898463,132.981476 196.339912,132.213335 196.469184,131.395056 C196.489931,131.263728 196.499967,131.131634 196.499938,130.982114 C196.499399,130.904173 196.495334,130.826883 196.487802,130.750355 Z M196.293451,131.997575 C196.624505,131.238171 197.508496,130.890924 198.2679,131.221978 C199.027304,131.553032 199.374551,132.437023 199.043497,133.196427 C198.859432,133.618653 198.623018,134.015554 198.340503,134.378171 C197.831359,135.031672 196.888849,135.148697 196.235347,134.639553 C195.581846,134.130409 195.464821,133.187899 195.973965,132.534398 C196.102609,132.36928 196.210025,132.188945 196.293451,131.997575 Z M195.469071,133.023177 C196.138779,132.535547 197.076986,132.683151 197.564616,133.352859 C198.052246,134.022567 197.904642,134.960774 197.234934,135.448404 C196.863201,135.719071 196.458624,135.942502 196.030222,136.112723 C195.260342,136.418627 194.388247,136.0425 194.082344,135.27262 C193.77644,134.502741 194.152567,133.630646 194.922447,133.324743 C195.116402,133.247677 195.299987,133.14629 195.469071,133.023177 Z M194.33166,133.478367 C195.152987,133.370139 195.90654,133.948221 196.014767,134.769548 C196.122994,135.590876 195.544912,136.344428 194.723585,136.452655 C194.501349,136.48194 194.27674,136.497717 194.050704,136.49977 C193.222311,136.507293 192.544667,135.841846 192.537144,135.013453 C192.529621,134.18506 193.195068,133.507417 194.023461,133.499894 C194.127449,133.498949 194.230272,133.491727 194.33166,133.478367 Z" id="Shape" fill="#FFFFFF" fill-rule="nonzero"></path>
                <path d="M83,138.5 C82.1715729,138.5 81.5,137.828427 81.5,137 C81.5,136.171573 82.1715729,135.5 83,135.5 C83.2127306,135.5 83.4206999,135.473767 83.6213573,135.422546 C84.4240455,135.217648 85.2408555,135.702252 85.4457536,136.50494 C85.6506517,137.307629 85.1660471,138.124439 84.3633589,138.329337 C83.9207233,138.442326 83.4635042,138.5 83,138.5 Z M85.6638987,137.812661 C84.9393615,138.214329 84.0263917,137.952592 83.6247235,137.228055 C83.2230554,136.503518 83.4847925,135.590548 84.2093297,135.18888 C84.3922571,135.087469 84.5621138,134.963197 84.7146849,134.819316 C85.3173841,134.250945 86.2667238,134.278774 86.8350944,134.881473 C87.4034649,135.484173 87.3756361,136.433512 86.7729368,137.001883 C86.4386862,137.317095 86.0661034,137.589688 85.6638987,137.812661 Z M87.6591037,135.923791 C87.2182716,136.625188 86.2923115,136.836418 85.5909139,136.395586 C84.8895164,135.954754 84.6782863,135.028794 85.1191185,134.327396 C85.230162,134.150718 85.3185625,133.961031 85.3820747,133.7623 C85.6342643,132.973191 86.478403,132.537933 87.2675113,132.790122 C88.0566196,133.042312 88.4918782,133.886451 88.2396887,134.675559 C88.0991525,135.115301 87.9038365,135.534402 87.6591037,135.923791 Z M88.4970412,133.181658 C88.4700391,134.009644 87.7769335,134.658971 86.9489465,134.631969 C86.1209596,134.604967 85.4716331,133.911861 85.4986352,133.083874 C85.4997021,133.045198 85.4997021,133.045198 85.4999881,133.009795 C85.4999956,132.814478 85.4800391,132.63176 85.4404665,132.453719 C85.2607212,131.645027 85.7705835,130.84374 86.5792758,130.663995 C87.387968,130.484249 88.1892549,130.994112 88.3690002,131.802804 C88.4562027,132.195137 88.4999838,132.596173 88.4999838,133.013469 C88.4993562,133.097721 88.4993562,133.097721 88.4970412,133.181658 Z M87.8947314,130.489845 C88.2731985,131.226768 87.9826133,132.130969 87.2456913,132.509436 C86.5087692,132.887903 85.6045676,132.597318 85.2261005,131.860396 C85.1306149,131.674474 85.0118591,131.50093 84.8729248,131.343986 C84.3238108,130.723691 84.3815139,129.775698 85.0018084,129.226584 C85.6221029,128.67747 86.5700958,128.735173 87.1192099,129.355468 C87.4237859,129.699525 87.6845453,130.080587 87.8947314,130.489845 Z M86.0699336,128.43601 C86.7570181,128.898834 86.9388168,129.83102 86.4759924,130.518104 C86.013168,131.205189 85.0809827,131.386987 84.3938982,130.924163 C84.2206234,130.807444 84.0336507,130.712965 83.8370317,130.643131 C83.0563815,130.365865 82.6483088,129.508253 82.9255756,128.727603 C83.2028425,127.946953 84.0604536,127.53888 84.8411038,127.816147 C85.2758576,127.970561 85.688487,128.179065 86.0699336,128.43601 Z M83.3629619,127.511841 C84.1896221,127.565918 84.8159245,128.279897 84.7618473,129.106557 C84.7077702,129.933217 83.9937915,130.559519 83.1671313,130.505442 C83.1158051,130.502085 83.06416,130.500275 83.0190731,130.500046 C82.8414582,130.500016 82.6839798,130.514588 82.5290024,130.544022 C81.7151246,130.6986 80.9300359,130.164132 80.7754578,129.350254 C80.6208797,128.536377 81.1553477,127.751288 81.9692256,127.59671 C82.3103971,127.531912 82.6554374,127.499985 83.0264153,127.500062 C83.1389574,127.500595 83.2511778,127.504528 83.3629619,127.511841 Z M80.6455588,128.028388 C81.3940942,127.673443 82.2886421,127.992511 82.6435875,128.741046 C82.9985328,129.489581 82.679465,130.384129 81.9309296,130.739075 C81.7421796,130.828577 81.565131,130.941731 81.4039965,131.075605 C80.7667959,131.605008 79.8210773,131.51762 79.2916749,130.880419 C78.7622725,130.243219 78.8496602,129.2975 79.4868608,128.768098 C79.8403938,128.474374 80.2295912,128.225634 80.6455588,128.028388 Z M78.5190035,129.810308 C78.9998343,129.135702 79.9365008,128.978616 80.6111069,129.459447 C81.2857129,129.940277 81.4427988,130.876944 80.961968,131.55155 C80.8406117,131.721813 80.7411276,131.906354 80.6660558,132.10106 C80.3680294,132.874023 79.499821,133.259035 78.726858,132.961009 C77.953895,132.662983 77.5688828,131.794774 77.8669092,131.021811 C78.0327784,130.591612 78.2521045,130.184767 78.5190035,129.810308 Z M77.5266224,132.456522 C77.607762,131.632078 78.3418825,131.029511 79.1663265,131.11065 C79.9907705,131.19179 80.5933377,131.925911 80.5121981,132.750355 C80.5046663,132.826883 80.5006013,132.904173 80.5000977,132.972339 C80.5000334,133.131634 80.5100688,133.263728 80.5308159,133.395056 C80.6600876,134.213335 80.1015369,134.981476 79.283258,135.110748 C78.4649791,135.24002 77.6968376,134.681469 77.5675659,133.86319 C77.5219206,133.574259 77.4999711,133.285341 77.5001328,132.961352 C77.5013045,132.792181 77.5101619,132.623774 77.5266224,132.456522 Z M77.9565032,135.196427 C77.6254492,134.437023 77.9726957,133.553032 78.7320999,133.221978 C79.4915041,132.890924 80.3754951,133.238171 80.7065491,133.997575 C80.789975,134.188945 80.8973912,134.36928 81.0260346,134.534398 C81.5351786,135.187899 81.4181539,136.130409 80.7646526,136.639553 C80.1111513,137.148697 79.1686411,137.031672 78.6594971,136.378171 C78.3769816,136.015554 78.1405678,135.618653 77.9565032,135.196427 Z M79.7650659,137.448404 C79.0953579,136.960774 78.9477543,136.022567 79.435384,135.352859 C79.9230136,134.683151 80.8612212,134.535547 81.5309292,135.023177 C81.7000128,135.14629 81.8835982,135.247677 82.0775533,135.324743 C82.8474329,135.630646 83.2235597,136.502741 82.9176561,137.27262 C82.6117525,138.0425 81.739658,138.418627 80.9697785,138.112723 C80.5413759,137.942502 80.1367992,137.719071 79.7650659,137.448404 Z M82.2764149,138.452655 C81.4550877,138.344428 80.8770058,137.590876 80.985233,136.769548 C81.0934602,135.948221 81.8470129,135.370139 82.6683401,135.478367 C82.7697279,135.491727 82.8725508,135.498949 82.9765391,135.499894 C83.804932,135.507417 84.4703786,136.18506 84.4628556,137.013453 C84.4553326,137.841846 83.7776888,138.507293 82.9492958,138.49977 C82.72326,138.497717 82.4986513,138.48194 82.2764149,138.452655 Z" id="Shape" fill="#FFFFFF" fill-rule="nonzero"></path>
                <path d="M83,125.5 C82.1715729,125.5 81.5,124.828427 81.5,124 C81.5,123.171573 82.1715729,122.5 83,122.5 C83.2127306,122.5 83.4206999,122.473767 83.6213573,122.422546 C84.4240455,122.217648 85.2408555,122.702252 85.4457536,123.50494 C85.6506517,124.307629 85.1660471,125.124439 84.3633589,125.329337 C83.9207233,125.442326 83.4635042,125.5 83,125.5 Z M85.6638987,124.812661 C84.9393615,125.214329 84.0263917,124.952592 83.6247235,124.228055 C83.2230554,123.503518 83.4847925,122.590548 84.2093297,122.18888 C84.3922571,122.087469 84.5621138,121.963197 84.7146849,121.819316 C85.3173841,121.250945 86.2667238,121.278774 86.8350944,121.881473 C87.4034649,122.484173 87.3756361,123.433512 86.7729368,124.001883 C86.4386862,124.317095 86.0661034,124.589688 85.6638987,124.812661 Z M87.6591037,122.923791 C87.2182716,123.625188 86.2923115,123.836418 85.5909139,123.395586 C84.8895164,122.954754 84.6782863,122.028794 85.1191185,121.327396 C85.230162,121.150718 85.3185625,120.961031 85.3820747,120.7623 C85.6342643,119.973191 86.478403,119.537933 87.2675113,119.790122 C88.0566196,120.042312 88.4918782,120.886451 88.2396887,121.675559 C88.0991525,122.115301 87.9038365,122.534402 87.6591037,122.923791 Z M88.4970412,120.181658 C88.4700391,121.009644 87.7769335,121.658971 86.9489465,121.631969 C86.1209596,121.604967 85.4716331,120.911861 85.4986352,120.083874 C85.4997021,120.045198 85.4997021,120.045198 85.4999881,120.009795 C85.4999956,119.814478 85.4800391,119.63176 85.4404665,119.453719 C85.2607212,118.645027 85.7705835,117.84374 86.5792758,117.663995 C87.387968,117.484249 88.1892549,117.994112 88.3690002,118.802804 C88.4562027,119.195137 88.4999838,119.596173 88.4999838,120.013469 C88.4993562,120.097721 88.4993562,120.097721 88.4970412,120.181658 Z M87.8947314,117.489845 C88.2731985,118.226768 87.9826133,119.130969 87.2456913,119.509436 C86.5087692,119.887903 85.6045676,119.597318 85.2261005,118.860396 C85.1306149,118.674474 85.0118591,118.50093 84.8729248,118.343986 C84.3238108,117.723691 84.3815139,116.775698 85.0018084,116.226584 C85.6221029,115.67747 86.5700958,115.735173 87.1192099,116.355468 C87.4237859,116.699525 87.6845453,117.080587 87.8947314,117.489845 Z M86.0699336,115.43601 C86.7570181,115.898834 86.9388168,116.83102 86.4759924,117.518104 C86.013168,118.205189 85.0809827,118.386987 84.3938982,117.924163 C84.2206234,117.807444 84.0336507,117.712965 83.8370317,117.643131 C83.0563815,117.365865 82.6483088,116.508253 82.9255756,115.727603 C83.2028425,114.946953 84.0604536,114.53888 84.8411038,114.816147 C85.2758576,114.970561 85.688487,115.179065 86.0699336,115.43601 Z M83.3629619,114.511841 C84.1896221,114.565918 84.8159245,115.279897 84.7618473,116.106557 C84.7077702,116.933217 83.9937915,117.559519 83.1671313,117.505442 C83.1158051,117.502085 83.06416,117.500275 83.0190731,117.500046 C82.8414582,117.500016 82.6839798,117.514588 82.5290024,117.544022 C81.7151246,117.6986 80.9300359,117.164132 80.7754578,116.350254 C80.6208797,115.536377 81.1553477,114.751288 81.9692256,114.59671 C82.3103971,114.531912 82.6554374,114.499985 83.0264153,114.500062 C83.1389574,114.500595 83.2511778,114.504528 83.3629619,114.511841 Z M80.6455588,115.028388 C81.3940942,114.673443 82.2886421,114.992511 82.6435875,115.741046 C82.9985328,116.489581 82.679465,117.384129 81.9309296,117.739075 C81.7421796,117.828577 81.565131,117.941731 81.4039965,118.075605 C80.7667959,118.605008 79.8210773,118.51762 79.2916749,117.880419 C78.7622725,117.243219 78.8496602,116.2975 79.4868608,115.768098 C79.8403938,115.474374 80.2295912,115.225634 80.6455588,115.028388 Z M78.5190035,116.810308 C78.9998343,116.135702 79.9365008,115.978616 80.6111069,116.459447 C81.2857129,116.940277 81.4427988,117.876944 80.961968,118.55155 C80.8406117,118.721813 80.7411276,118.906354 80.6660558,119.10106 C80.3680294,119.874023 79.499821,120.259035 78.726858,119.961009 C77.953895,119.662983 77.5688828,118.794774 77.8669092,118.021811 C78.0327784,117.591612 78.2521045,117.184767 78.5190035,116.810308 Z M77.5266224,119.456522 C77.607762,118.632078 78.3418825,118.029511 79.1663265,118.11065 C79.9907705,118.19179 80.5933377,118.925911 80.5121981,119.750355 C80.5046663,119.826883 80.5006013,119.904173 80.5000977,119.972339 C80.5000334,120.131634 80.5100688,120.263728 80.5308159,120.395056 C80.6600876,121.213335 80.1015369,121.981476 79.283258,122.110748 C78.4649791,122.24002 77.6968376,121.681469 77.5675659,120.86319 C77.5219206,120.574259 77.4999711,120.285341 77.5001328,119.961352 C77.5013045,119.792181 77.5101619,119.623774 77.5266224,119.456522 Z M77.9565032,122.196427 C77.6254492,121.437023 77.9726957,120.553032 78.7320999,120.221978 C79.4915041,119.890924 80.3754951,120.238171 80.7065491,120.997575 C80.789975,121.188945 80.8973912,121.36928 81.0260346,121.534398 C81.5351786,122.187899 81.4181539,123.130409 80.7646526,123.639553 C80.1111513,124.148697 79.1686411,124.031672 78.6594971,123.378171 C78.3769816,123.015554 78.1405678,122.618653 77.9565032,122.196427 Z M79.7650659,124.448404 C79.0953579,123.960774 78.9477543,123.022567 79.435384,122.352859 C79.9230136,121.683151 80.8612212,121.535547 81.5309292,122.023177 C81.7000128,122.14629 81.8835982,122.247677 82.0775533,122.324743 C82.8474329,122.630646 83.2235597,123.502741 82.9176561,124.27262 C82.6117525,125.0425 81.739658,125.418627 80.9697785,125.112723 C80.5413759,124.942502 80.1367992,124.719071 79.7650659,124.448404 Z M82.2764149,125.452655 C81.4550877,125.344428 80.8770058,124.590876 80.985233,123.769548 C81.0934602,122.948221 81.8470129,122.370139 82.6683401,122.478367 C82.7697279,122.491727 82.8725508,122.498949 82.9765391,122.499894 C83.804932,122.507417 84.4703786,123.18506 84.4628556,124.013453 C84.4553326,124.841846 83.7776888,125.507293 82.9492958,125.49977 C82.72326,125.497717 82.4986513,125.48194 82.2764149,125.452655 Z" id="Shape" fill="#FFFFFF" fill-rule="nonzero"></path>
                <path d="M182.99782,153.133321 C182.989328,153.392637 182.956153,153.64571 182.900569,153.890265 C183.286268,153.901144 183.662697,153.927661 184.031211,153.97011 C184.203446,154.344858 184.221281,154.788608 184.043497,155.196427 C183.859432,155.618653 183.623018,156.015554 183.340503,156.378171 C182.831359,157.031672 181.888849,157.148697 181.235347,156.639553 C180.581846,156.130409 180.464821,155.187899 180.973965,154.534398 C181.102609,154.36928 181.210025,154.188945 181.293451,153.997575 C181.585843,153.326858 182.309563,152.977652 182.99782,153.133321 L182.99782,153.133321 Z M182.999824,153.037887 C182.305393,153.163938 181.597207,152.783861 181.333944,152.10106 C181.258872,151.906354 181.159388,151.721813 181.038032,151.55155 C180.557201,150.876944 180.714287,149.940277 181.388893,149.459447 C182.063499,148.978616 183.000166,149.135702 183.480997,149.810308 C183.731989,150.16245 183.94091,150.543233 184.102866,150.945145 C189.257235,151.416909 193.073871,154.353233 197.70683,159.959781 C197.841667,160.122953 199.282675,161.883585 199.697334,162.379156 C203.12778,166.478987 205.364356,168.041236 208.397634,167.917265 C215.023566,167.646463 223.983665,157.896114 234.82534,138.622841 L232.054082,139.11948 C231.238646,139.265615 230.459139,138.723039 230.313004,137.907603 C230.166869,137.092167 230.709445,136.31266 231.524881,136.166525 L237.604397,135.07701 C238.330134,134.94695 239.042787,135.363601 239.285437,136.059828 L241.367043,142.032505 C241.639683,142.814783 241.226541,143.669963 240.444263,143.942604 C239.661985,144.215245 238.806805,143.802102 238.534164,143.019824 L237.486079,140.012593 C226.108147,160.26903 216.604975,170.584335 208.520142,170.914763 C204.278777,171.088108 201.376403,169.0608 197.396517,164.304316 C196.969354,163.793801 195.519855,162.022794 195.394241,161.870784 C191.442314,157.088383 188.365186,154.598579 184.399586,154.018238 C184.203819,154.75069 183.482218,155.231678 182.716742,155.110748 C181.898463,154.981476 181.339912,154.213335 181.469184,153.395056 C181.489931,153.263728 181.499967,153.131634 181.499938,152.982114 C181.499399,152.904173 181.495334,152.826883 181.487802,152.750355 C181.416123,152.022035 181.878013,151.364205 182.555081,151.164769 C182.839407,151.714432 183,152.338462 183,153 C183,153.012643 182.999941,153.025272 182.999824,153.037887 L182.999824,153.037887 Z M182.509408,151.079048 C181.964642,151.529577 181.15963,151.54388 180.596003,151.075605 C180.434869,150.941731 180.25782,150.828577 180.06907,150.739075 C179.320535,150.384129 179.001467,149.489581 179.356413,148.741046 C179.711358,147.992511 180.605906,147.673443 181.354441,148.028388 C181.770409,148.225634 182.159606,148.474374 182.513139,148.768098 C183.149442,149.296754 183.23748,150.240554 182.71056,150.877723 C182.604792,150.876943 182.498439,150.877099 182.391486,150.878189 C182.432673,150.943885 182.472005,151.010862 182.509408,151.079048 L182.509408,151.079048 Z M174.7562,155.917064 C175.091538,155.715128 175.429238,155.529761 175.770327,155.360381 C175.618538,155.153044 175.486233,154.930545 175.376106,154.69558 C175.948075,154.280305 176.752269,154.316631 177.285315,154.819316 C177.437886,154.963197 177.607743,155.087469 177.79067,155.18888 C178.515208,155.590548 178.776945,156.503518 178.375276,157.228055 C177.973608,157.952592 177.060638,158.214329 176.336101,157.812661 C175.933897,157.589688 175.561314,157.317095 175.227063,157.001883 C174.915903,156.708446 174.75797,156.313464 174.7562,155.917064 L174.7562,155.917064 Z M174.466717,156.095873 C170.9892,158.297958 167.735568,162.313796 163.547678,168.800522 C163.686337,168.585751 161.263208,172.364491 160.595738,173.379956 C155.295272,181.443904 151.511661,184.976997 146.198649,185.025047 C141.595472,185.066677 137.728574,183.362313 132.548546,179.651545 C131.967792,179.235516 131.368823,178.795149 130.614272,178.231963 C130.320127,178.012418 129.030142,177.045069 128.683868,176.7868 C128.328051,176.521414 127.978624,176.263698 127.635076,176.013538 C127.534944,176.178887 127.400988,176.327496 127.234934,176.448404 C126.863201,176.719071 126.458624,176.942502 126.030222,177.112723 C125.260342,177.418627 124.388247,177.0425 124.082344,176.27262 C123.77644,175.502741 124.152567,174.630646 124.922447,174.324743 C125.116402,174.247677 125.299987,174.14629 125.469071,174.023177 C126.061451,173.591851 126.863905,173.657533 127.378788,174.141931 C127.129738,174.533975 126.814332,174.879726 126.448376,175.16338 C126.793418,175.40623 127.144216,175.657171 127.501353,175.916332 C127.074675,176.016616 126.608018,175.929901 126.235347,175.639553 C125.581846,175.130409 125.464821,174.187899 125.973965,173.534398 C126.102609,173.36928 126.210025,173.188945 126.293451,172.997575 C126.624505,172.238171 127.508496,171.890924 128.2679,172.221978 C128.771125,172.441353 129.093365,172.903531 129.157178,173.411364 C128.751739,173.117943 128.3533,172.834176 127.96112,172.559927 C127.88624,173.094502 127.705699,173.595198 127.441287,174.040227 C126.777351,173.801325 126.355014,173.117744 126.469184,172.395056 C126.489931,172.263728 126.499967,172.131634 126.499938,171.982114 C126.499399,171.904173 126.495334,171.826883 126.487802,171.750355 C126.406662,170.925911 127.00923,170.19179 127.833674,170.11065 C128.658117,170.029511 129.392238,170.632078 129.473378,171.456522 C129.489838,171.623774 129.498696,171.792181 129.499902,171.971128 C129.500029,172.285341 129.478079,172.574259 129.432434,172.86319 C129.39837,173.078812 129.319946,173.2764 129.207933,173.44812 C129.623484,173.749251 130.046401,174.060502 130.477475,174.382019 C130.827776,174.643291 132.118312,175.611053 132.408705,175.827798 C133.148905,176.380272 133.733276,176.809907 134.29561,177.212741 C139.005133,180.586457 142.347773,182.05975 146.171519,182.025169 C150.101902,181.989624 153.324493,178.980405 158.088807,171.73214 C158.745308,170.733362 161.157426,166.971794 161.027303,167.173345 C165.678732,159.968629 169.330463,155.529299 173.50186,153.141362 C173.50062,153.094481 173.500522,153.080854 173.500012,153.00991 C173.499996,152.596173 173.543797,152.195137 173.631,151.802804 C173.810745,150.994112 174.612032,150.484249 175.420724,150.663995 C176.229416,150.84374 176.739279,151.645027 176.559534,152.453719 C176.519961,152.63176 176.500004,152.814478 176.500008,153.006236 C176.500298,153.045198 176.500298,153.045198 176.501365,153.083874 C176.525234,153.815779 176.020632,154.442291 175.331303,154.59649 C175.118192,154.107446 175,153.567526 175,153 C175,152.909095 175.003032,152.818899 175.009002,152.729506 C175.709923,152.643951 176.395063,153.064957 176.617925,153.7623 C176.681438,153.961031 176.769838,154.150718 176.880882,154.327396 C177.321714,155.028794 177.110484,155.954754 176.409086,156.395586 C175.768807,156.798005 174.941396,156.657049 174.466717,156.095873 Z M174.737898,152.500883 C174.01309,152.117494 173.729624,151.221273 174.105269,150.489845 C174.315455,150.080587 174.576214,149.699525 174.88079,149.355468 C175.429904,148.735173 176.377897,148.67747 176.998192,149.226584 C177.618486,149.775698 177.676189,150.723691 177.127075,151.343986 C176.988141,151.50093 176.869385,151.674474 176.7739,151.860396 C176.43964,152.51124 175.695293,152.813928 175.018286,152.615029 C175.026508,152.528934 175.037458,152.443635 175.05105,152.359219 C174.946259,152.405281 174.841882,152.452499 174.737898,152.500883 Z M119.115589,170.880413 C119.428724,171.014183 119.743252,171.156154 120.059903,171.306491 C120.159307,170.737819 120.378819,170.210446 120.691333,169.751478 C121.33915,170.031091 121.718277,170.739517 121.559534,171.453719 C121.519961,171.63176 121.500004,171.814478 121.500008,172.006236 C121.500298,172.045198 121.500298,172.045198 121.501365,172.083874 C121.528367,172.911861 120.87904,173.604967 120.051053,173.631969 C119.223067,173.658971 118.529961,173.009644 118.502959,172.181658 C118.500644,172.097721 118.500644,172.097721 118.500012,172.00991 C118.499996,171.596173 118.543797,171.195137 118.631,170.802804 C118.63941,170.764966 118.649181,170.727782 118.66025,170.691292 C115.796678,169.536116 113.020782,169.065261 109.769476,169.151357 C99.3002083,169.428588 88.8837879,178.90823 78.6618926,197.839591 C78.2682973,198.568546 77.3582912,198.840408 76.6293369,198.446812 C75.9003827,198.053217 75.6285205,197.143211 76.0221158,196.414257 C86.7014982,176.635611 97.8769212,166.465226 109.690062,166.152408 C113.580028,166.0494 116.849648,166.646375 120.211756,168.075506 C120.760485,167.734056 121.489523,167.776286 121.998192,168.226584 C122.618486,168.775698 122.676189,169.723691 122.127075,170.343986 C121.988141,170.50093 121.869385,170.674474 121.7739,170.860396 C121.395432,171.597318 120.491231,171.887903 119.754309,171.509436 C119.471438,171.36416 119.254333,171.14142 119.115589,170.880413 L119.115589,170.880413 Z M120.367652,168.14234 C120.474161,167.864241 120.66432,167.615019 120.930066,167.43601 C121.311513,167.179065 121.724142,166.970561 122.158896,166.816147 C122.939546,166.53888 123.797157,166.946953 124.074424,167.727603 C124.351691,168.508253 123.943618,169.365865 123.162968,169.643131 C122.966349,169.712965 122.779377,169.807444 122.606102,169.924163 C121.998386,170.333524 121.198924,170.238588 120.702085,169.735768 C120.966012,169.352085 121.295161,169.016752 121.673532,168.745771 C121.235511,168.530623 120.800725,168.329573 120.367652,168.14234 L120.367652,168.14234 Z M179,155.5 C179.828427,155.5 180.5,156.171573 180.5,157 C180.5,157.828427 179.828427,158.5 179,158.5 C178.536496,158.5 178.079277,158.442326 177.636641,158.329337 C176.833953,158.124439 176.349348,157.307629 176.554246,156.50494 C176.759144,155.702252 177.575955,155.217648 178.378643,155.422546 C178.5793,155.473767 178.787269,155.5 179,155.5 Z M177.606102,150.924163 C176.919017,151.386987 175.986832,151.205189 175.524008,150.518104 C175.061183,149.83102 175.242982,148.898834 175.930066,148.43601 C176.311513,148.179065 176.724142,147.970561 177.158896,147.816147 C177.939546,147.53888 178.797157,147.946953 179.074424,148.727603 C179.351691,149.508253 178.943618,150.365865 178.162968,150.643131 C177.966349,150.712965 177.779377,150.807444 177.606102,150.924163 Z M178.832869,150.505442 C178.006208,150.559519 177.29223,149.933217 177.238153,149.106557 C177.184076,148.279897 177.810378,147.565918 178.637038,147.511841 C178.748822,147.504528 178.861043,147.500595 178.98043,147.500046 C179.344563,147.499985 179.689603,147.531912 180.030774,147.59671 C180.844652,147.751288 181.37912,148.536377 181.224542,149.350254 C181.069964,150.164132 180.284875,150.6986 179.470998,150.544022 C179.31602,150.514588 179.158542,150.500016 178.987773,150.500029 C178.93584,150.500275 178.884195,150.502085 178.832869,150.505442 Z M180.469071,155.023177 C181.138779,154.535547 182.076986,154.683151 182.564616,155.352859 C183.052246,156.022567 182.904642,156.960774 182.234934,157.448404 C181.863201,157.719071 181.458624,157.942502 181.030222,158.112723 C180.260342,158.418627 179.388247,158.0425 179.082344,157.27262 C178.77644,156.502741 179.152567,155.630646 179.922447,155.324743 C180.116402,155.247677 180.299987,155.14629 180.469071,155.023177 Z M179.33166,155.478367 C180.152987,155.370139 180.90654,155.948221 181.014767,156.769548 C181.122994,157.590876 180.544912,158.344428 179.723585,158.452655 C179.501349,158.48194 179.27674,158.497717 179.050704,158.49977 C178.222311,158.507293 177.544667,157.841846 177.537144,157.013453 C177.529621,156.18506 178.195068,155.507417 179.023461,155.499894 C179.127449,155.498949 179.230272,155.491727 179.33166,155.478367 Z M124,174.5 C124.828427,174.5 125.5,175.171573 125.5,176 C125.5,176.828427 124.828427,177.5 124,177.5 C123.536496,177.5 123.079277,177.442326 122.636641,177.329337 C121.833953,177.124439 121.349348,176.307629 121.554246,175.50494 C121.759144,174.702252 122.575955,174.217648 123.378643,174.422546 C123.5793,174.473767 123.787269,174.5 124,174.5 Z M122.79067,174.18888 C123.515208,174.590548 123.776945,175.503518 123.375276,176.228055 C122.973608,176.952592 122.060638,177.214329 121.336101,176.812661 C120.933897,176.589688 120.561314,176.317095 120.227063,176.001883 C119.624364,175.433512 119.596535,174.484173 120.164906,173.881473 C120.733276,173.278774 121.682616,173.250945 122.285315,173.819316 C122.437886,173.963197 122.607743,174.087469 122.79067,174.18888 Z M121.880882,173.327396 C122.321714,174.028794 122.110484,174.954754 121.409086,175.395586 C120.707688,175.836418 119.781728,175.625188 119.340896,174.923791 C119.096163,174.534402 118.900848,174.115301 118.760311,173.675559 C118.508122,172.886451 118.94338,172.042312 119.732489,171.790122 C120.521597,171.537933 121.365736,171.973191 121.617925,172.7623 C121.681438,172.961031 121.769838,173.150718 121.880882,173.327396 Z M123.832869,169.505442 C123.006208,169.559519 122.29223,168.933217 122.238153,168.106557 C122.184076,167.279897 122.810378,166.565918 123.637038,166.511841 C123.748822,166.504528 123.861043,166.500595 123.98043,166.500046 C124.344563,166.499985 124.689603,166.531912 125.030774,166.59671 C125.844652,166.751288 126.37912,167.536377 126.224542,168.350254 C126.069964,169.164132 125.284875,169.6986 124.470998,169.544022 C124.31602,169.514588 124.158542,169.500016 123.987773,169.500029 C123.93584,169.500275 123.884195,169.502085 123.832869,169.505442 Z M125.06907,169.739075 C124.320535,169.384129 124.001467,168.489581 124.356413,167.741046 C124.711358,166.992511 125.605906,166.673443 126.354441,167.028388 C126.770409,167.225634 127.159606,167.474374 127.513139,167.768098 C128.15034,168.2975 128.237728,169.243219 127.708325,169.880419 C127.178923,170.51762 126.233204,170.605008 125.596003,170.075605 C125.434869,169.941731 125.25782,169.828577 125.06907,169.739075 Z M126.038032,170.55155 C125.557201,169.876944 125.714287,168.940277 126.388893,168.459447 C127.063499,167.978616 128.000166,168.135702 128.480997,168.810308 C128.747896,169.184767 128.967222,169.591612 129.133091,170.021811 C129.431117,170.794774 129.046105,171.662983 128.273142,171.961009 C127.500179,172.259035 126.631971,171.874023 126.333944,171.10106 C126.258872,170.906354 126.159388,170.721813 126.038032,170.55155 Z M124.33166,174.478367 C125.152987,174.370139 125.90654,174.948221 126.014767,175.769548 C126.122994,176.590876 125.544912,177.344428 124.723585,177.452655 C124.501349,177.48194 124.27674,177.497717 124.050704,177.49977 C123.222311,177.507293 122.544667,176.841846 122.537144,176.013453 C122.529621,175.18506 123.195068,174.507417 124.023461,174.499894 C124.127449,174.498949 124.230272,174.491727 124.33166,174.478367 Z" id="Shape" fill="#FFFFFF" fill-rule="nonzero"></path>
                <path d="M108,202 C108,199.238576 110.238576,197 113,197 L195,197 C197.761424,197 200,199.238576 200,202 C200,204.761424 197.761424,207 195,207 L113,207 C110.238576,207 108,204.761424 108,202 Z" id="Shape" fill="url(#linearGradient-6)" fill-rule="nonzero"></path>
                <path d="M123.979152,83.5623047 C123.82008,84.6553601 122.80503,85.4125034 121.711975,85.2534316 C120.61892,85.0943599 119.861777,84.0793104 120.020848,82.986255 C120.326768,80.8841403 120.682144,78.873659 121.08814,76.9517492 C121.316437,75.8710299 122.377605,75.1800056 123.458324,75.4083031 C124.539043,75.6366006 125.230068,76.6977683 125.00177,77.7784876 C124.613723,79.6154319 124.2731,81.542448 123.979152,83.5623047 Z M127.66107,68.454138 C127.273144,69.4883467 126.120277,70.012263 125.086068,69.6243378 C124.05186,69.2364125 123.527943,68.0835451 123.915869,67.0493363 C124.678736,65.0155317 125.528292,63.1126495 126.467585,61.337234 C126.984128,60.3608851 128.194356,59.9881387 129.170705,60.5046816 C130.147054,61.0212245 130.519801,62.2314524 130.003258,63.2078013 C129.145503,64.829096 128.365355,66.5765137 127.66107,68.454138 Z M135.492161,55.5586406 C134.720518,56.3489836 133.454279,56.3641437 132.663936,55.5925015 C131.873593,54.8208593 131.858433,53.5546201 132.630075,52.7642771 C134.132185,51.2257637 135.764763,49.8557964 137.531176,48.6522671 C138.444004,48.0303199 139.688186,48.2661256 140.310133,49.1789539 C140.93208,50.0917822 140.696274,51.3359635 139.783446,51.9579107 C138.237268,53.0113848 136.808896,54.2099941 135.492161,55.5586406 Z M148.356745,47.9284754 C147.299647,48.2488147 146.183013,47.6515536 145.862674,46.5944554 C145.542334,45.5373573 146.139595,44.4207236 147.196694,44.1003843 C149.127786,43.515193 151.166373,43.0538455 153.316423,42.7144046 C154.407479,42.5421532 155.431592,43.2869916 155.603843,44.3780476 C155.776095,45.4691036 155.031256,46.4932166 153.9402,46.665468 C151.967915,46.9768442 150.108319,47.3976846 148.356745,47.9284754 Z M12.9791518,145.23072 C12.82008,146.323776 11.8050305,147.080919 10.7119752,146.921847 C9.61891983,146.762776 8.86177651,145.747726 9.02084824,144.654671 C9.32676782,142.552556 9.68214398,140.542075 10.0881396,138.620165 C10.3164371,137.539446 11.3776048,136.848421 12.458324,137.076719 C13.5390432,137.305016 14.2300676,138.366184 14.00177,139.446903 C13.6137231,141.283847 13.2731004,143.210864 12.9791518,145.23072 Z M16.6610698,130.122554 C16.2731445,131.156762 15.1202771,131.680679 14.0860683,131.292753 C13.0518595,130.904828 12.5279433,129.751961 12.9158685,128.717752 C13.678736,126.683947 14.5282918,124.781065 15.4675854,123.00565 C15.9841283,122.029301 17.1943562,121.656554 18.1707052,122.173097 C19.1470541,122.68964 19.5198005,123.899868 19.0032576,124.876217 C18.1455025,126.497512 17.3653549,128.244929 16.6610698,130.122554 Z M24.4921606,117.227056 C23.7205185,118.017399 22.4542793,118.032559 21.6639362,117.260917 C20.8735931,116.489275 20.8584331,115.223036 21.6300753,114.432693 C23.1321847,112.894179 24.7647628,111.524212 26.5311759,110.320683 C27.4440042,109.698736 28.6881856,109.934541 29.3101327,110.84737 C29.9320799,111.760198 29.6962742,113.004379 28.7834459,113.626326 C27.237268,114.6798 25.8088958,115.87841 24.4921606,117.227056 Z M37.3567447,109.596891 C36.2996465,109.91723 35.1830129,109.319969 34.8626736,108.262871 C34.5423343,107.205773 35.1395954,106.089139 36.1966935,105.7688 C38.1277857,105.183609 40.1663733,104.722261 42.3164227,104.38282 C43.4074788,104.210569 44.4315918,104.955407 44.6038432,106.046463 C44.7760946,107.137519 44.0312562,108.161632 42.9402002,108.333884 C40.9679151,108.64526 39.1083187,109.0661 37.3567447,109.596891 Z M177.5,48 C175.014719,48 173,45.9852814 173,43.5 C173,41.0147186 175.014719,39 177.5,39 C179.985281,39 182,41.0147186 182,43.5 C182,45.9852814 179.985281,48 177.5,48 Z M177.5,51 C181.642136,51 185,47.6421356 185,43.5 C185,39.3578644 181.642136,36 177.5,36 C173.357864,36 170,39.3578644 170,43.5 C170,47.6421356 173.357864,51 177.5,51 Z M177.5,54 C171.70101,54 167,49.2989899 167,43.5 C167,37.7010101 171.70101,33 177.5,33 C183.29899,33 188,37.7010101 188,43.5 C188,49.2989899 183.29899,54 177.5,54 Z M10.5,164 C8.01471863,164 6,161.985281 6,159.5 C6,157.014719 8.01471863,155 10.5,155 C12.9852814,155 15,157.014719 15,159.5 C15,161.985281 12.9852814,164 10.5,164 Z M10.5,167 C14.6421356,167 18,163.642136 18,159.5 C18,155.357864 14.6421356,152 10.5,152 C6.35786438,152 3,155.357864 3,159.5 C3,163.642136 6.35786438,167 10.5,167 Z M10.5,170 C4.70101013,170 5.32907052e-15,165.29899 5.32907052e-15,159.5 C5.32907052e-15,153.70101 4.70101013,149 10.5,149 C16.2989899,149 21,153.70101 21,159.5 C21,165.29899 16.2989899,170 10.5,170 Z" id="Shape" fill="#D4DFFF" fill-rule="nonzero"></path>
                <path d="M4,189 L25,189 C27.209139,189 29,190.790861 29,193 L29,238 C29,240.209139 27.209139,242 25,242 L4,242 C1.790861,242 0,240.209139 0,238 L0,193 C0,190.790861 1.790861,189 4,189 Z M40,175 L61,175 C63.209139,175 65,176.790861 65,179 L65,238 C65,240.209139 63.209139,242 61,242 L40,242 C37.790861,242 36,240.209139 36,238 L36,179 C36,176.790861 37.790861,175 40,175 Z M112,175 L133,175 C135.209139,175 137,176.790861 137,179 L137,238 C137,240.209139 135.209139,242 133,242 L112,242 C109.790861,242 108,240.209139 108,238 L108,179 C108,176.790861 109.790861,175 112,175 Z M77,146 L98,146 C100.209139,146 102,147.790861 102,150 L102,238 C102,240.209139 100.209139,242 98,242 L77,242 C74.790861,242 73,240.209139 73,238 L73,150 C73,147.790861 74.790861,146 77,146 Z" id="Shape" fill="url(#linearGradient-7)"></path>
                <path d="M257,156 L290,156 C291.104569,156 292,156.895431 292,158 L292,159.305556 C292,160.410125 291.104569,161.305556 290,161.305556 L257,161.305556 C255.895431,161.305556 255,160.410125 255,159.305556 L255,158 C255,156.895431 255.895431,156 257,156 Z M257,166 L310,166 C311.104569,166 312,166.895431 312,168 L312,169.305556 C312,170.410125 311.104569,171.305556 310,171.305556 L257,171.305556 C255.895431,171.305556 255,170.410125 255,169.305556 L255,168 C255,166.895431 255.895431,166 257,166 Z" id="Shape" fill="url(#linearGradient-8)"></path>
                <path d="M23,70 L56,70 C57.1045695,70 58,70.8954305 58,72 L58,73.3055556 C58,74.4101251 57.1045695,75.3055556 56,75.3055556 L23,75.3055556 C21.8954305,75.3055556 21,74.4101251 21,73.3055556 L21,72 C21,70.8954305 21.8954305,70 23,70 Z M3,80 L56,80 C57.1045695,80 58,80.8954305 58,82 L58,83.3055556 C58,84.4101251 57.1045695,85.3055556 56,85.3055556 L3,85.3055556 C1.8954305,85.3055556 1,84.4101251 1,83.3055556 L1,82 C1,80.8954305 1.8954305,80 3,80 Z" id="Shape" fill="url(#linearGradient-8)"></path>
                <path d="M93,118 L125,118 C126.104569,118 127,118.895431 127,120 L127,121.305556 C127,122.410125 126.104569,123.305556 125,123.305556 L93,123.305556 C91.8954305,123.305556 91,122.410125 91,121.305556 L91,120 C91,118.895431 91.8954305,118 93,118 Z" id="Shape" fill="#FFFFFF" fill-rule="nonzero"></path>
                <path d="M92,130.5 L125,130.5 C126.104569,130.5 127,131.395431 127,132.5 L127,133.805556 C127,134.910125 126.104569,135.805556 125,135.805556 L92,135.805556 C90.8954305,135.805556 90,134.910125 90,133.805556 L90,132.5 C90,131.395431 90.8954305,130.5 92,130.5 Z" id="Shape" fill="#FFFFFF" fill-rule="nonzero"></path>
            </g>
        </g>
    </g>
</svg>