<?xml version="1.0" standalone="no"?><!DOCTYPE svg PUBLIC "-//W3C//DTD SVG 1.1//EN" "http://www.w3.org/Graphics/SVG/1.1/DTD/svg11.dtd"><svg class="icon" width="200px" height="200.00px" viewBox="0 0 1024 1024" version="1.1" xmlns="http://www.w3.org/2000/svg"><path fill="#0bf271" d="M130.03 317.61c9.73-10.17 20.39-18.98 31.99-26.43l-0.02-49.66 116.59-15.03 236.44-94 235.04 93.98 113.71 14.97-0.32 182.51v0.12c0.01 4.28-0.07 8.54-0.2 12.8l24.96 65.49c0 0.01 0 0.02-0.01 0.04l20 52.49a449.365 449.365 0 0 0 19.23-130.88l0.42-238.68-161.5-21.26L515.08 63.6 262.42 164.05l-164.46 21.2 0.09 182.2c8.15-19.19 18.39-35.37 30.73-48.54 0.41-0.44 0.83-0.86 1.25-1.3zM830.74 647.57l-14.35-37.67h-0.42c-23.26 41.92-54.45 78.83-92.23 107.86L512.21 880.29l-110.1-84.96-0.01 0.01-24.89-19.21-24.61-18.99c-7.91 3.55-17.03 6.37-27.41 8.45-3.75 0.75-7.57 1.4-11.48 1.96l-0.01-0.01c-11.27 1.6-23.22 2.41-35.79 2.41-0.97 0-1.93-0.02-2.9-0.03l-3.96 5.13 241.07 186.01 250.6-192.55c31.31-24.06 58.77-52.66 81.86-84.61l-13.84-36.33z"  /><path fill="#0bf271" d="M346.52 750.81c14.06-2.81 25.76-7.03 35.16-12.66l31.64 47.81 56.25-47.81-28.13-42.19c18.73-18.72 32.19-43.59 40.43-74.53 8.18-30.94 12.3-68.91 12.3-113.91 0-88.11-17.03-150.91-50.98-188.44-34-37.49-81.46-56.25-142.38-56.25-60.97 0-108.98 18.76-144.14 56.25-35.16 37.53-52.73 100.33-52.73 188.44 0 88.15 17.58 151.44 52.73 189.84 35.16 38.45 83.17 57.66 144.14 57.66 16.38 0.01 31.65-1.4 45.71-4.21z m-124.8-87.19c-22.3-25.31-33.4-77.34-33.4-156.09s11.1-130.3 33.4-154.69c22.25-24.35 48.61-36.56 79.1-36.56 30.43 0 56.25 12.22 77.34 36.56 21.09 24.39 31.64 75.94 31.64 154.69 0 31.9-1.21 55.33-3.52 70.31-2.36 15.03-5.88 31.9-10.55 50.63l-49.22-75.94-49.22 47.81 56.25 87.19c-4.72 3.78-11.76 7.03-21.09 9.84-9.39 2.81-19.94 4.22-31.64 4.22-30.48 0-56.85-12.66-79.09-37.97zM785.97 262.84h-70.31L539.88 749.4h84.38l49.22-149.06h154.69l49.22 149.06h84.38l-175.8-486.56zM691.05 546.9l56.25-171.56h7.03l56.25 171.56H691.05z"  /></svg>