<?xml version="1.0" encoding="UTF-8"?>
<svg width="312px" height="308px" viewBox="0 0 312 308" version="1.1" xmlns="http://www.w3.org/2000/svg" xmlns:xlink="http://www.w3.org/1999/xlink">
    <title>target, chart, report bar@2x</title>
    <defs>
        <linearGradient x1="50%" y1="-42.9786065%" x2="50%" y2="100%" id="linearGradient-1">
            <stop stop-color="#5174D0" offset="0%"></stop>
            <stop stop-color="#1F2480" offset="100%"></stop>
        </linearGradient>
        <linearGradient x1="16.7763061%" y1="78.133666%" x2="34.4715321%" y2="9.65491873%" id="linearGradient-2">
            <stop stop-color="#A5FECB" offset="0%"></stop>
            <stop stop-color="#20BDFF" offset="100%"></stop>
        </linearGradient>
        <linearGradient x1="50%" y1="0%" x2="50%" y2="100%" id="linearGradient-3">
            <stop stop-color="#9D61F7" offset="0%"></stop>
            <stop stop-color="#00DEFC" offset="100%"></stop>
        </linearGradient>
        <linearGradient x1="50%" y1="0%" x2="50%" y2="100%" id="linearGradient-4">
            <stop stop-color="#FFB36D" offset="0%"></stop>
            <stop stop-color="#E73E79" offset="100%"></stop>
        </linearGradient>
        <linearGradient x1="50%" y1="-30.9601329%" x2="50%" y2="127.882425%" id="linearGradient-5">
            <stop stop-color="#FFF2F2" stop-opacity="0.139407835" offset="0%"></stop>
            <stop stop-color="#FEFAF9" offset="100%"></stop>
        </linearGradient>
        <linearGradient x1="50%" y1="-42.9786065%" x2="50%" y2="100%" id="linearGradient-6">
            <stop stop-color="#5174D0" offset="0%"></stop>
            <stop stop-color="#1F2480" offset="100%"></stop>
        </linearGradient>
        <linearGradient x1="50%" y1="0%" x2="50%" y2="100%" id="linearGradient-7">
            <stop stop-color="#966AFF" offset="0%"></stop>
            <stop stop-color="#E885E0" offset="100%"></stop>
        </linearGradient>
        <linearGradient x1="50%" y1="0%" x2="50%" y2="100%" id="linearGradient-8">
            <stop stop-color="#966AFF" offset="0%"></stop>
            <stop stop-color="#E885E0" offset="100%"></stop>
        </linearGradient>
        <linearGradient x1="50%" y1="0%" x2="50%" y2="100%" id="linearGradient-9">
            <stop stop-color="#FFB36D" offset="0%"></stop>
            <stop stop-color="#E73E79" offset="100%"></stop>
        </linearGradient>
        <linearGradient x1="85.4375409%" y1="31.8117507%" x2="50%" y2="68.1882493%" id="linearGradient-10">
            <stop stop-color="#038BF9" offset="0%"></stop>
            <stop stop-color="#04C9E1" offset="100%"></stop>
        </linearGradient>
        <linearGradient x1="50%" y1="-42.9786065%" x2="50%" y2="100%" id="linearGradient-11">
            <stop stop-color="#5174D0" offset="0%"></stop>
            <stop stop-color="#1F2480" offset="100%"></stop>
        </linearGradient>
        <linearGradient x1="50%" y1="-42.9786065%" x2="50%" y2="100%" id="linearGradient-12">
            <stop stop-color="#5174D0" offset="0%"></stop>
            <stop stop-color="#1F2480" offset="100%"></stop>
        </linearGradient>
        <linearGradient x1="50%" y1="-42.9786065%" x2="50%" y2="100%" id="linearGradient-13">
            <stop stop-color="#5174D0" offset="0%"></stop>
            <stop stop-color="#1F2480" offset="100%"></stop>
        </linearGradient>
    </defs>
    <g id="Page-1" stroke="none" stroke-width="1" fill="none" fill-rule="evenodd">
        <g id="Business---Icon-Illustration" transform="translate(-1025.000000, -1488.000000)">
            <g id="target,-chart,-report-bar" transform="translate(1025.000000, 1488.000000)">
                <ellipse id="Shape" fill="#B6A0D1" fill-rule="nonzero" opacity="0.200000003" cx="156.5" cy="298" rx="142.5" ry="10"></ellipse>
                <path d="M260.5,166 C258.014719,166 256,163.985281 256,161.5 C256,159.014719 258.014719,157 260.5,157 C262.985281,157 265,159.014719 265,161.5 C265,163.985281 262.985281,166 260.5,166 Z M260.5,169 C264.642136,169 268,165.642136 268,161.5 C268,157.357864 264.642136,154 260.5,154 C256.357864,154 253,157.357864 253,161.5 C253,165.642136 256.357864,169 260.5,169 Z M260.5,172 C254.70101,172 250,167.29899 250,161.5 C250,155.70101 254.70101,151 260.5,151 C266.29899,151 271,155.70101 271,161.5 C271,167.29899 266.29899,172 260.5,172 Z M257.94388,180.516371 C257.94388,179.411801 258.839311,178.516371 259.94388,178.516371 C261.04845,178.516371 261.94388,179.411801 261.94388,180.516371 L261.94388,186.516371 C261.94388,187.62094 261.04845,188.516371 259.94388,188.516371 C258.839311,188.516371 257.94388,187.62094 257.94388,186.516371 L257.94388,180.516371 Z M257.94388,196.516371 C257.94388,195.411801 258.839311,194.516371 259.94388,194.516371 C261.04845,194.516371 261.94388,195.411801 261.94388,196.516371 L261.94388,202.516371 C261.94388,203.62094 261.04845,204.516371 259.94388,204.516371 C258.839311,204.516371 257.94388,203.62094 257.94388,202.516371 L257.94388,196.516371 Z M257.94388,212.516371 C257.94388,211.411801 258.839311,210.516371 259.94388,210.516371 C261.04845,210.516371 261.94388,211.411801 261.94388,212.516371 L261.94388,218.516371 C261.94388,219.62094 261.04845,220.516371 259.94388,220.516371 C258.839311,220.516371 257.94388,219.62094 257.94388,218.516371 L257.94388,212.516371 Z M257.636141,227.884227 C257.968053,226.830705 259.091169,226.245725 260.144691,226.577637 C261.198213,226.909549 261.783193,228.032664 261.451281,229.086186 C260.788613,231.189563 259.478452,233.15886 257.611087,234.936356 C256.811024,235.697916 255.545079,235.666702 254.783519,234.866639 C254.02196,234.066576 254.053174,232.80063 254.853237,232.039071 C256.255996,230.703821 257.19024,229.299563 257.636141,227.884227 Z M246.985634,236.755202 C248.01327,236.350184 249.174665,236.854916 249.579682,237.882552 C249.984699,238.910188 249.479967,240.071582 248.452331,240.476599 C246.587668,241.21151 244.580608,241.840624 242.4639,242.353036 C241.39034,242.612923 240.309366,241.953311 240.049479,240.87975 C239.789592,239.806189 240.449205,238.725216 241.522765,238.465329 C243.464059,237.995381 245.295637,237.421272 246.985634,236.755202 Z M231.95127,239.849533 C233.054086,239.787325 233.998525,240.630905 234.060733,241.733721 C234.122941,242.836537 233.279361,243.780976 232.176544,243.843184 C230.98942,243.910148 229.790945,243.94388 228.584621,243.94388 L226.087683,243.94388 C224.983113,243.94388 224.087683,243.04845 224.087683,241.94388 C224.087683,240.839311 224.983113,239.94388 226.087683,239.94388 L228.584621,239.94388 C229.715856,239.94388 230.83921,239.912262 231.95127,239.849533 Z M216.320474,239.584695 C217.418178,239.707654 218.208365,240.697198 218.085405,241.794902 C217.962445,242.892607 216.972902,243.682793 215.875198,243.559833 C213.763785,243.323323 211.709957,242.979544 209.738478,242.534291 C208.661045,242.290956 207.984875,241.220262 208.22821,240.142829 C208.471545,239.065396 209.542239,238.389226 210.619672,238.632561 C212.445999,239.045032 214.354322,239.364456 216.320474,239.584695 Z M201.628294,235.49443 C202.612835,235.995182 203.005022,237.199251 202.50427,238.183791 C202.003517,239.168332 200.799449,239.56052 199.814908,239.059767 C197.730076,237.999389 195.907916,236.794141 194.398675,235.468541 C193.56877,234.739616 193.486909,233.475935 194.215833,232.64603 C194.944758,231.816125 196.208439,231.734264 197.038345,232.463188 C198.284342,233.557576 199.829051,234.579307 201.628294,235.49443 Z M193.483629,225.264227 C193.483629,226.368796 192.588199,227.264227 191.483629,227.264227 C190.37906,227.264227 189.483629,226.368796 189.483629,225.264227 L189.483629,219.264227 C189.483629,218.159657 190.37906,217.264227 191.483629,217.264227 C192.588199,217.264227 193.483629,218.159657 193.483629,219.264227 L193.483629,225.264227 Z M193.483629,209.264227 C193.483629,210.368796 192.588199,211.264227 191.483629,211.264227 C190.37906,211.264227 189.483629,210.368796 189.483629,209.264227 L189.483629,206.576722 C189.483629,205.472153 190.37906,204.576722 191.483629,204.576722 C192.588199,204.576722 193.483629,205.472153 193.483629,206.576722 L193.483629,209.264227 Z M41.46875,229 C42.5733195,229 43.46875,229.895431 43.46875,231 C43.46875,232.104569 42.5733195,233 41.46875,233 C39.2496267,233 37.0649549,232.67009 34.9518008,232.024698 C33.895403,231.702056 33.3005759,230.584124 33.6232173,229.527726 C33.9458587,228.471329 35.0637908,227.876501 36.1201886,228.199143 C37.8567886,228.729529 39.647852,229 41.46875,229 Z M28.242531,223.621378 C29.0592288,224.36507 29.1184115,225.630017 28.3747192,226.446714 C27.6310268,227.263412 26.3660806,227.322595 25.5493827,226.578903 C23.9904912,225.159362 22.5662939,223.536196 21.3032567,221.74179 C20.6674809,220.838538 20.8843126,219.59091 21.7875639,218.955134 C22.6908151,218.319359 23.9384431,218.53619 24.574219,219.439442 C25.6710613,220.997733 26.9021595,222.400824 28.242531,223.621378 Z M20.4844419,211.012748 C20.8098312,212.068303 20.2179153,213.187779 19.1623606,213.513169 C18.106806,213.838558 16.9873297,213.246642 16.6619404,212.191087 C16.0457617,210.192219 15.5958347,208.118397 15.3207462,205.99477 C15.1788491,204.899353 15.9518299,203.896311 17.0472472,203.754414 C18.1426644,203.612517 19.1457059,204.385498 19.2876031,205.480915 C19.5335682,207.379717 19.9352642,209.23123 20.4844419,211.012748 Z M19,195.825754 C19,196.930323 18.1045695,197.825754 17,197.825754 C15.8954305,197.825754 15,196.930323 15,195.825754 L15,189.825754 C15,188.721184 15.8954305,187.825754 17,187.825754 C18.1045695,187.825754 19,188.721184 19,189.825754 L19,195.825754 Z M19,179.825754 C19,180.930323 18.1045695,181.825754 17,181.825754 C15.8954305,181.825754 15,180.930323 15,179.825754 L15,173.825754 C15,172.721184 15.8954305,171.825754 17,171.825754 C18.1045695,171.825754 19,172.721184 19,173.825754 L19,179.825754 Z M19,163.825754 C19,164.930323 18.1045695,165.825754 17,165.825754 C15.8954305,165.825754 15,164.930323 15,163.825754 L15,157.825754 C15,156.721184 15.8954305,155.825754 17,155.825754 C18.1045695,155.825754 19,156.721184 19,157.825754 L19,163.825754 Z M19,147.825754 C19,148.930323 18.1045695,149.825754 17,149.825754 C15.8954305,149.825754 15,148.930323 15,147.825754 L15,141.825754 C15,140.721184 15.8954305,139.825754 17,139.825754 C18.1045695,139.825754 19,140.721184 19,141.825754 L19,147.825754 Z M19,131.825754 C19,132.930323 18.1045695,133.825754 17,133.825754 C15.8954305,133.825754 15,132.930323 15,131.825754 L15,125.825754 C15,124.721184 15.8954305,123.825754 17,123.825754 C18.1045695,123.825754 19,124.721184 19,125.825754 L19,131.825754 Z M19,115.825754 C19,116.930323 18.1045695,117.825754 17,117.825754 C15.8954305,117.825754 15,116.930323 15,115.825754 L15,112.006944 C15,111.238133 15.0223859,110.472468 15.0669547,109.710906 C15.1314869,108.608223 16.0777016,107.766636 17.1803844,107.831168 C18.2830672,107.8957 19.1246546,108.841915 19.0601224,109.944597 C19.0201074,110.628347 19,111.316081 19,112.006944 L19,115.825754 Z M20.9081124,100.708856 C20.5385689,101.749775 19.3951635,102.294032 18.354245,101.924489 C17.3133265,101.554945 16.7690694,100.41154 17.1386129,99.3706211 C17.8611663,97.3353551 18.7571558,95.3974926 19.810808,93.5872226 C20.3664481,92.6325825 21.5907722,92.309129 22.5454123,92.8647691 C23.5000525,93.4204093 23.8235059,94.6447333 23.2678658,95.5993735 C22.3397464,97.1939669 21.5481077,98.9061376 20.9081124,100.708856 Z M29.2390388,88.5212564 C28.3815214,89.2174875 27.1219594,89.0867392 26.4257283,88.2292219 C25.7294972,87.3717045 25.8602455,86.1121425 26.7177628,85.4159114 C28.444089,84.0142814 30.304219,82.8609657 32.2630294,81.9843336 C33.2712388,81.5331267 34.4543294,81.9846665 34.9055363,82.9928759 C35.3567432,84.0010853 34.9052034,85.1841759 33.896994,85.6353827 C32.2610482,86.3675223 30.6983248,87.3364403 29.2390388,88.5212564 Z M42.817242,84 C41.7126725,84 40.817242,83.1045695 40.817242,82 C40.817242,80.8954305 41.7126725,80 42.817242,80 L48.817242,80 C49.9218115,80 50.817242,80.8954305 50.817242,82 C50.817242,83.1045695 49.9218115,84 48.817242,84 L42.817242,84 Z M58.817242,84 C57.7126725,84 56.817242,83.1045695 56.817242,82 C56.817242,80.8954305 57.7126725,80 58.817242,80 L64.817242,80 C65.9218115,80 66.817242,80.8954305 66.817242,82 C66.817242,83.1045695 65.9218115,84 64.817242,84 L58.817242,84 Z M74.817242,84 C73.7126725,84 72.817242,83.1045695 72.817242,82 C72.817242,80.8954305 73.7126725,80 74.817242,80 L80.817242,80 C81.9218115,80 82.817242,80.8954305 82.817242,82 C82.817242,83.1045695 81.9218115,84 80.817242,84 L74.817242,84 Z M60.5,237 C58.0147186,237 56,234.985281 56,232.5 C56,230.014719 58.0147186,228 60.5,228 C62.9852814,228 65,230.014719 65,232.5 C65,234.985281 62.9852814,237 60.5,237 Z M60.5,240 C64.6421356,240 68,236.642136 68,232.5 C68,228.357864 64.6421356,225 60.5,225 C56.3578644,225 53,228.357864 53,232.5 C53,236.642136 56.3578644,240 60.5,240 Z M60.5,243 C54.7010101,243 50,238.29899 50,232.5 C50,226.70101 54.7010101,222 60.5,222 C66.2989899,222 71,226.70101 71,232.5 C71,238.29899 66.2989899,243 60.5,243 Z" id="Shape" fill="#D4DFFF" fill-rule="nonzero"></path>
                <path d="M255,130 L268,130 C269.104569,130 270,130.895431 270,132 L270,133.305556 C270,134.410125 269.104569,135.305556 268,135.305556 L255,135.305556 C253.895431,135.305556 253,134.410125 253,133.305556 L253,132 C253,130.895431 253.895431,130 255,130 Z M255,140 L288,140 C289.104569,140 290,140.895431 290,142 L290,143.305556 C290,144.410125 289.104569,145.305556 288,145.305556 L255,145.305556 C253.895431,145.305556 253,144.410125 253,143.305556 L253,142 C253,140.895431 253.895431,140 255,140 Z" id="Shape" fill="url(#linearGradient-1)"></path>
                <path d="M179,54.7916667 L200,54.7916667 C202.209139,54.7916667 204,56.5825277 204,58.7916667 L204,106 C204,108.209139 202.209139,110 200,110 L179,110 C176.790861,110 175,108.209139 175,106 L175,58.7916667 C175,56.5825277 176.790861,54.7916667 179,54.7916667 Z M215,40.2083333 L236,40.2083333 C238.209139,40.2083333 240,41.9991943 240,44.2083333 L240,106 C240,108.209139 238.209139,110 236,110 L215,110 C212.790861,110 211,108.209139 211,106 L211,44.2083333 C211,41.9991943 212.790861,40.2083333 215,40.2083333 Z M287,40.2083333 L308,40.2083333 C310.209139,40.2083333 312,41.9991943 312,44.2083333 L312,106 C312,108.209139 310.209139,110 308,110 L287,110 C284.790861,110 283,108.209139 283,106 L283,44.2083333 C283,41.9991943 284.790861,40.2083333 287,40.2083333 Z M252,10 L273,10 C275.209139,10 277,11.790861 277,14 L277,106 C277,108.209139 275.209139,110 273,110 L252,110 C249.790861,110 248,108.209139 248,106 L248,14 C248,11.790861 249.790861,10 252,10 Z" id="Shape" fill="url(#linearGradient-2)" fill-rule="nonzero"></path>
                <path d="M141.170708,223.320508 L141.170708,253 C141.170708,255.761424 138.932132,258 136.170708,258 C133.409284,258 131.170708,255.761424 131.170708,253 L131.170708,221 L112.330962,253.631397 C110.95025,256.02286 107.892298,256.842236 105.500835,255.461524 C103.109372,254.080812 102.289996,251.02286 103.670708,248.631397 L128.670708,205.330127 C129.259567,204.310192 130.153506,203.57621 131.170708,203.176898 L131.170708,83 C131.170708,80.2385763 133.409284,78 136.170708,78 C138.932132,78 141.170708,80.2385763 141.170708,83 L141.170708,203.961608 C141.624592,204.333394 142.020247,204.791953 142.330962,205.330127 L167.330962,248.631397 C168.711674,251.02286 167.892298,254.080812 165.500835,255.461524 C163.109372,256.842236 160.05142,256.02286 158.670708,253.631397 L141.170708,223.320508 L141.170708,223.320508 Z" id="Shape" fill="url(#linearGradient-3)"></path>
                <path d="M53,88 L219,88 C223.418278,88 227,91.581722 227,96 L227,200 C227,204.418278 223.418278,208 219,208 L53,208 C48.581722,208 45,204.418278 45,200 L45,96 C45,91.581722 48.581722,88 53,88 Z" id="Shape" fill="url(#linearGradient-4)"></path>
                <path d="M57,114 L215,114 C219.418278,114 223,117.581722 223,122 L223,196 C223,200.418278 219.418278,204 215,204 L57,204 C52.581722,204 49,200.418278 49,196 L49,122 C49,117.581722 52.581722,114 57,114 Z" id="Shape" fill="url(#linearGradient-5)" opacity="0.965587798"></path>
                <path d="M176.354407,134.743939 C176.851925,135.350521 177.580274,136.237956 177.855725,136.567156 C181.286171,140.666986 183.522748,142.229235 186.556026,142.105265 C193.444049,141.823751 199.617118,136.800317 205.059007,126.808452 L202.17979,127.615278 C201.382091,127.838813 200.554217,127.37336 200.330683,126.575661 C200.107148,125.777962 200.572601,124.950089 201.3703,124.726554 L207.33184,123.055988 C208.115143,122.836487 208.930648,123.281351 209.170118,124.058781 L211.094057,130.304762 C211.337929,131.09648 210.893811,131.935992 210.102093,132.179864 C209.310374,132.423735 208.470863,131.979618 208.226991,131.187899 L207.454138,128.678866 C201.603081,139.228318 194.683085,144.775615 186.678534,145.102762 C182.437168,145.276107 179.534795,143.248799 175.554908,138.492316 C175.232927,138.107507 174.330092,137.006532 173.851201,136.422569 C173.317926,136.594898 172.749031,136.688 172.158391,136.688 C169.120825,136.688 166.658391,134.225566 166.658391,131.188 C166.658391,130.690523 166.724439,130.208472 166.848244,129.750138 C164.261717,128.210236 161.563849,127.766903 158.06839,128.271029 C152.107296,129.130756 147.426924,133.938817 139.892673,145.214609 C139.558535,145.714681 137.840142,148.300702 137.35645,149.022777 C136.381004,150.478959 135.59119,151.632112 134.828753,152.704483 C132.227573,156.363052 129.914317,159.073037 127.649683,160.87587 C127.655463,160.979178 127.658391,161.083247 127.658391,161.188 C127.658391,164.225566 125.195957,166.688 122.158391,166.688 C119.957959,166.688 118.059337,165.395802 117.179966,163.528851 C114.137912,163.35754 111.388831,162.898725 107.728614,162.079384 C107.324059,161.988823 105.867297,161.658581 105.938611,161.67469 C99.355922,160.187767 95.1050508,159.658625 87.9771332,159.847376 C77.6433166,160.12102 67.1639855,172.709975 56.889155,197.881798 C56.5760788,198.648789 55.7005115,199.016759 54.9335208,198.703683 C54.1665301,198.390607 53.7985597,197.51504 54.1116359,196.748049 C64.803771,170.553891 75.9491272,157.164832 87.8977196,156.848427 C95.3052113,156.652273 99.7929348,157.210898 106.599609,158.748416 C106.531929,158.733128 107.98407,159.062323 108.383948,159.151835 C111.625618,159.877485 114.086608,160.303482 116.702055,160.491642 C117.044299,157.782843 119.356707,155.688 122.158391,155.688 C123.94784,155.688 125.537691,156.542577 126.542092,157.865879 C128.315299,156.287705 130.222323,154.00616 132.383739,150.96612 C133.127522,149.919986 133.90273,148.788158 134.863984,147.353161 C135.343812,146.636855 137.060893,144.052809 137.398265,143.547897 C145.427494,131.531319 150.487431,126.333338 157.640152,125.301751 C161.948423,124.680399 165.27909,125.277061 168.407176,127.165735 C169.389742,126.248985 170.708554,125.688 172.158391,125.688 C175.195957,125.688 177.658391,128.150433 177.658391,131.188 C177.658391,132.543847 177.167783,133.785108 176.354407,134.743939 L176.354407,134.743939 Z M122.158391,163.688 C123.539103,163.688 124.658391,162.568711 124.658391,161.188 C124.658391,159.807288 123.539103,158.688 122.158391,158.688 C120.777679,158.688 119.658391,159.807288 119.658391,161.188 C119.658391,162.568711 120.777679,163.688 122.158391,163.688 Z M172.158391,133.688 C173.539103,133.688 174.658391,132.568711 174.658391,131.188 C174.658391,129.807288 173.539103,128.688 172.158391,128.688 C170.777679,128.688 169.658391,129.807288 169.658391,131.188 C169.658391,132.568711 170.777679,133.688 172.158391,133.688 Z" id="Shape" fill="#FFFFFF" fill-rule="nonzero"></path>
                <path d="M162.261703,151.133185 C167.415846,151.605078 171.232395,154.541394 175.865221,160.14778 C176.000059,160.310953 177.441066,162.071584 177.855725,162.567156 C181.286171,166.666986 183.522748,168.229235 186.556026,168.105265 C193.181957,167.834462 202.142057,158.084113 212.983731,138.810841 L210.212474,139.30748 C209.397037,139.453615 208.61753,138.911039 208.471395,138.095603 C208.32526,137.280167 208.867836,136.500659 209.683272,136.354524 L215.762788,135.265009 C216.488526,135.134949 217.201178,135.551601 217.443828,136.247828 L219.525434,142.220505 C219.798075,143.002783 219.384932,143.857963 218.602654,144.130604 C217.820376,144.403244 216.965196,143.990102 216.692555,143.207824 L215.644471,140.200592 C204.266538,160.45703 194.763367,170.772334 186.678534,171.102762 C182.437168,171.276107 179.534795,169.248799 175.554908,164.492316 C175.127745,163.981801 173.678246,162.210793 173.552633,162.058783 C169.602757,157.278865 166.526772,154.789164 162.564152,154.207143 C162.086256,156.757782 159.847737,158.688 157.158391,158.688 C155.271466,158.688 153.606475,157.737783 152.615826,156.289756 C149.1418,158.493106 145.890233,162.507568 141.70607,168.988522 C141.844728,168.77375 139.421599,172.55249 138.754129,173.567956 C133.453663,181.631904 129.670052,185.164997 124.35704,185.213046 C119.753864,185.254676 115.886965,183.550312 110.706937,179.839545 C110.126183,179.423515 109.527214,178.983148 108.772663,178.419962 C108.478519,178.200417 107.188534,177.233068 106.842259,176.9748 C106.510638,176.72746 106.184567,176.486783 105.863633,176.252675 C104.886088,177.144286 103.585735,177.688 102.158391,177.688 C99.1208251,177.688 96.6583913,175.225566 96.6583913,172.188 C96.6583913,171.736555 96.7127817,171.297813 96.815367,170.877971 C93.9529534,169.723757 91.1779339,169.253293 87.9278673,169.339357 C77.4585996,169.616588 67.0421792,179.09623 56.8202839,198.027591 C56.4266886,198.756545 55.5166825,199.028407 54.7877282,198.634812 C54.058774,198.241217 53.7869118,197.331211 54.1805071,196.602256 C64.8598895,176.823611 76.0353124,166.653225 87.8484538,166.340408 C91.7209046,166.237864 94.9785833,166.829013 98.3247387,168.244252 C99.3153568,167.281118 100.667609,166.688 102.158391,166.688 C105.195957,166.688 107.658391,169.150433 107.658391,172.188 C107.658391,172.710969 107.585401,173.21689 107.449052,173.696132 C107.837975,173.978556 108.233364,174.269812 108.635866,174.570018 C108.986167,174.83129 110.276703,175.799052 110.567096,176.015797 C111.307296,176.568271 111.891667,176.997906 112.454001,177.40074 C117.163524,180.774456 120.506165,182.24775 124.32991,182.213169 C128.260293,182.177624 131.482884,179.168404 136.247198,171.92014 C136.903699,170.921362 139.315817,167.159794 139.185694,167.361344 C143.837095,160.156674 147.488809,155.717353 151.660174,153.329406 C151.658988,153.282415 151.658391,153.235277 151.658391,153.188 C151.658391,150.150433 154.120825,147.688 157.158391,147.688 C159.469521,147.688 161.447712,149.113482 162.261703,151.133185 L162.261703,151.133185 Z M157.158391,155.688 C158.539103,155.688 159.658391,154.568711 159.658391,153.188 C159.658391,151.807288 158.539103,150.688 157.158391,150.688 C155.777679,150.688 154.658391,151.807288 154.658391,153.188 C154.658391,154.568711 155.777679,155.688 157.158391,155.688 Z M102.158391,174.688 C103.539103,174.688 104.658391,173.568711 104.658391,172.188 C104.658391,170.807288 103.539103,169.688 102.158391,169.688 C100.777679,169.688 99.6583913,170.807288 99.6583913,172.188 C99.6583913,173.568711 100.777679,174.688 102.158391,174.688 Z" id="Shape" fill="#FFFFFF" fill-rule="nonzero"></path>
                <path d="M116,99 L156.526316,99 C157.630885,99 158.526316,99.8954305 158.526316,101 L158.526316,102.305556 C158.526316,103.410125 157.630885,104.305556 156.526316,104.305556 L116,104.305556 C114.895431,104.305556 114,103.410125 114,102.305556 L114,101 C114,99.8954305 114.895431,99 116,99 Z" id="Shape" fill="#FFFFFF" fill-rule="nonzero"></path>
                <path d="M87,206 C87,203.238576 89.2385763,201 92,201 L174,201 C176.761424,201 179,203.238576 179,206 C179,208.761424 176.761424,211 174,211 L92,211 C89.2385763,211 87,208.761424 87,206 Z" id="Shape" fill="url(#linearGradient-6)"></path>
                <ellipse id="Shape" fill="url(#linearGradient-7)" cx="75.0811688" cy="75" rx="75.0811688" ry="75"></ellipse>
                <path d="M75.0551948,130 C44.6500183,130 20,105.37663 20,75 C20,44.6233696 44.6500183,20 75.0551948,20 C105.460371,20 130.11039,44.6233696 130.11039,75 C130.11039,105.37663 105.460371,130 75.0551948,130 Z" id="Shape" fill="#FFFFFF" fill-rule="nonzero"></path>
                <path d="M75.0551948,123 C101.595346,123 123.11039,101.509668 123.11039,75 C123.11039,48.490332 101.595346,27 75.0551948,27 C48.5150436,27 27,48.490332 27,75 C27,101.509668 48.5150436,123 75.0551948,123 Z" id="Shape" fill="url(#linearGradient-8)"></path>
                <path d="M75.0292208,101.010811 C60.6546471,101.010811 49,89.3687634 49,75.0054054 C49,60.6420475 60.6546471,49 75.0292208,49 C89.4037945,49 101.058442,60.6420475 101.058442,75.0054054 C101.058442,89.3687634 89.4037945,101.010811 75.0292208,101.010811 Z" id="Shape" fill="#FFFFFF" fill-rule="nonzero"></path>
                <path d="M75.0292208,93.0108108 C84.9864845,93.0108108 93.0584416,84.9495162 93.0584416,75.0054054 C93.0584416,65.0612946 84.9864845,57 75.0292208,57 C65.0719571,57 57,65.0612946 57,75.0054054 C57,84.9495162 65.0719571,93.0108108 75.0292208,93.0108108 Z" id="Shape" fill="url(#linearGradient-9)"></path>
                <path d="M176.990104,17.5611882 C177.819428,18.997619 177.32727,20.8343759 175.890839,21.6636996 L83.4049496,75.0604528 C81.9685189,75.8897765 80.131762,75.397619 79.3024383,73.9611882 C78.4731146,72.5247574 78.9652721,70.6880005 80.4017029,69.8586768 L172.887592,16.4619236 C174.324023,15.6325999 176.16078,16.1247574 176.990104,17.5611882 Z" id="Shape" fill="url(#linearGradient-10)"></path>
                <path d="M78.9991037,74.3695457 L90.4764255,76.528482 C91.8878813,76.7939832 92.9976884,78.2338757 92.9552491,79.7445718 C92.9128097,81.2552679 91.7341948,82.2646978 90.3227389,81.9991965 L75.8383304,79.2746136 C74.2623962,78.9781733 73.1044699,77.2406386 73.4053369,75.6237676 L76.1154241,61.0596526 C76.38489,59.6115325 77.7270274,58.8474775 79.113172,59.353088 C80.4993166,59.8586985 81.4045636,61.44251 81.1350977,62.8906301 L78.9991037,74.3695457 Z" id="Shape" fill="url(#linearGradient-11)"></path>
                <path d="M173.465176,6.51218303 L172.595587,16.52629 L151.810977,28.52629 L152.86276,16.4140595 C152.998337,14.8527671 153.887557,13.4559736 155.244764,12.6723896 L169.874174,4.22609604 C171.022076,3.56335434 172.489893,3.95665471 173.152635,5.10455701 C173.398633,5.53063889 173.507739,6.0220306 173.465176,6.51218303 Z" id="Shape" fill="url(#linearGradient-12)"></path>
                <path d="M183.696359,25.9651626 C184.142125,26.1733781 184.51313,26.5135624 184.759128,26.9396443 C185.42187,28.0875466 185.02857,29.5553635 183.880667,30.2181052 L169.251258,38.6643988 C167.894051,39.4479828 166.239782,39.5196732 164.819874,38.8564402 L153.804484,33.7111953 L174.589094,21.7111953 L183.696359,25.9651626 Z" id="Shape" fill="url(#linearGradient-13)"></path>
            </g>
        </g>
    </g>
</svg>